<svg width="20" height="20" viewBox="0 0 20 20" fill="none" xmlns="http://www.w3.org/2000/svg">
<path d="M11.0714 10.6923C11.6526 10.6757 13 11.9231 13 15M8.5 10.0769C8.5 9.48923 8.5 8.84615 9.00529 8.42954C9.81657 7.75938 10.9499 8.768 11.0624 9.69723C11.1177 10.1532 10.9242 11.6105 10.1052 12.4831C9.79986 12.8092 9.52407 13.0935 9.00529 13.144C8.52314 13.1908 8.12843 13.0689 7.67071 12.7822C6.93914 12.3249 6.17479 11.5532 5.52614 10.4868C4.83314 9.34892 4.459 8.57108 4 7" stroke="black" stroke-width="2" stroke-linecap="round" stroke-linejoin="round"/>
<path d="M7 7.33204C7.50778 6.79462 10.464 4.7002 12.5466 7.20219C12.7988 7.50561 12.9249 7.65733 13.1409 8.25004C13.3561 8.84211 13.3561 9.25418 13.3561 10.0783V15M13.3588 9.21432C13.3588 7.93568 14.3492 6.6429 16 6.6429" stroke="black" stroke-width="2" stroke-linecap="round" stroke-linejoin="round"/>
<path d="M17.5 1H2.5C1.67157 1 1 1.67157 1 2.5V17.5C1 18.3284 1.67157 19 2.5 19H17.5C18.3284 19 19 18.3284 19 17.5V2.5C19 1.67157 18.3284 1 17.5 1Z" stroke="black" stroke-width="2" stroke-linecap="round" stroke-linejoin="round"/>
</svg>
