<svg width="28" height="28" viewBox="0 0 28 28" fill="none" xmlns="http://www.w3.org/2000/svg">
<rect x="0.25" y="0.25" width="27.5" height="27.5" rx="2.75" fill="#D0EADB"/>
<rect x="0.25" y="0.25" width="27.5" height="27.5" rx="2.75" stroke="#C6C6C6" stroke-width="0.5"/>
<path d="M14 14.8H18.4444V18.8H14V14.8ZM20.2222 7.6H19.3333V6H17.5556V7.6H10.4444V6H8.66667V7.6H7.77778C6.8 7.6 6 8.32 6 9.2V20.4C6 21.28 6.8 22 7.77778 22H20.2222C21.2 22 22 21.28 22 20.4V9.2C22 8.32 21.2 7.6 20.2222 7.6ZM20.2222 9.2V10.8H7.77778V9.2H20.2222ZM7.77778 20.4V12.4H20.2222V20.4H7.77778Z" fill="#008F52"/>
</svg>
