<svg width="28" height="28" viewBox="0 0 28 28" fill="none" xmlns="http://www.w3.org/2000/svg">
<rect width="28" height="28" rx="3" fill="#FFCCD9"/>
<path d="M8.94737 13.2L13.5789 6L18.2105 13.2H8.94737ZM18.2105 22C17.1579 22 16.2633 21.6501 15.5267 20.9504C14.7902 20.2507 14.4216 19.4005 14.421 18.4C14.4205 17.3995 14.789 16.5496 15.5267 15.8504C16.2644 15.1512 17.159 14.8011 18.2105 14.8C19.262 14.7989 20.1569 15.1491 20.8952 15.8504C21.6334 16.5517 22.0017 17.4016 22 18.4C21.9983 19.3984 21.63 20.2485 20.8952 20.9504C20.1603 21.6523 19.2654 22.0021 18.2105 22ZM6 21.6V15.2H12.7368V21.6H6Z" fill="#FF005C"/>
</svg>
