<svg width="28" height="28" viewBox="0 0 28 28" fill="none" xmlns="http://www.w3.org/2000/svg">
<rect x="0.25" y="0.25" width="27.5" height="27.5" rx="2.75" fill="#FDD3FD"/>
<rect x="0.25" y="0.25" width="27.5" height="27.5" rx="2.75" stroke="#C6C6C6" stroke-width="0.5"/>
<path d="M13.4375 10.8853C12.7355 11.0773 12.3125 11.6165 12.3125 12.125C12.3125 12.6335 12.7355 13.1728 13.4375 13.364V10.8853ZM14.5625 14.636V17.114C15.2645 16.9228 15.6875 16.3835 15.6875 15.875C15.6875 15.3665 15.2645 14.8273 14.5625 14.636Z" fill="#EC46F0"/>
<path fill-rule="evenodd" clip-rule="evenodd" d="M21.5 14C21.5 18.1422 18.1422 21.5 14 21.5C9.85775 21.5 6.5 18.1422 6.5 14C6.5 9.85775 9.85775 6.5 14 6.5C18.1422 6.5 21.5 9.85775 21.5 14ZM14 8.9375C14.1492 8.9375 14.2923 8.99676 14.3977 9.10225C14.5032 9.20774 14.5625 9.35082 14.5625 9.5V9.73775C15.785 9.95675 16.8125 10.8755 16.8125 12.125C16.8125 12.2742 16.7532 12.4173 16.6477 12.5227C16.5423 12.6282 16.3992 12.6875 16.25 12.6875C16.1008 12.6875 15.9577 12.6282 15.8523 12.5227C15.7468 12.4173 15.6875 12.2742 15.6875 12.125C15.6875 11.6165 15.2645 11.0773 14.5625 10.8853V13.4878C15.785 13.7068 16.8125 14.6255 16.8125 15.875C16.8125 17.1245 15.785 18.0433 14.5625 18.2623V18.5C14.5625 18.6492 14.5032 18.7923 14.3977 18.8977C14.2923 19.0032 14.1492 19.0625 14 19.0625C13.8508 19.0625 13.7077 19.0032 13.6023 18.8977C13.4968 18.7923 13.4375 18.6492 13.4375 18.5V18.2623C12.215 18.0433 11.1875 17.1245 11.1875 15.875C11.1875 15.7258 11.2468 15.5827 11.3523 15.4773C11.4577 15.3718 11.6008 15.3125 11.75 15.3125C11.8992 15.3125 12.0423 15.3718 12.1477 15.4773C12.2532 15.5827 12.3125 15.7258 12.3125 15.875C12.3125 16.3835 12.7355 16.9228 13.4375 17.114V14.5122C12.215 14.2932 11.1875 13.3745 11.1875 12.125C11.1875 10.8755 12.215 9.95675 13.4375 9.73775V9.5C13.4375 9.35082 13.4968 9.20774 13.6023 9.10225C13.7077 8.99676 13.8508 8.9375 14 8.9375Z" fill="#EC46F0"/>
</svg>
