<svg width="28" height="28" viewBox="0 0 28 28" fill="none" xmlns="http://www.w3.org/2000/svg">
<rect x="0.25" y="0.25" width="27.5" height="27.5" rx="2.75" fill="#E3C6FF"/>
<rect x="0.25" y="0.25" width="27.5" height="27.5" rx="2.75" stroke="#C6C6C6" stroke-width="0.5"/>
<path d="M21.8428 15.5599C21.6261 15.146 21.217 14.889 20.7751 14.889C20.5664 14.889 20.3591 14.9477 20.1758 15.0587L16.6084 17.2205C16.5618 17.2487 16.5282 17.2964 16.5155 17.3523C16.4533 17.6255 16.3068 18.0071 15.9627 18.2728C15.5818 18.5669 15.0666 18.6282 14.4388 18.4549C14.435 18.4539 14.4313 18.4528 14.428 18.4517L12.3701 17.7641C12.2456 17.7225 12.1759 17.5798 12.2145 17.4459C12.2454 17.3388 12.3361 17.2669 12.4401 17.2669C12.4637 17.2669 12.4874 17.2708 12.5103 17.2784L14.5575 17.9624C14.5608 17.9635 14.5641 17.9645 14.5675 17.9654C15.0503 18.0965 15.4273 18.0601 15.6871 17.8596C16.0152 17.6063 16.073 17.1609 16.0798 17.0955C16.0801 17.0934 16.0803 17.0913 16.0804 17.0892C16.0806 17.0881 16.0806 17.0875 16.0806 17.0874C16.0807 17.0867 16.0807 17.086 16.0808 17.0853C16.0808 17.0849 16.0808 17.0845 16.0809 17.084C16.1199 16.5348 15.7906 16.0277 15.2971 15.8778L15.2881 15.8748C15.273 15.8696 13.7586 15.3373 12.7937 15.041C12.6865 15.0082 12.391 14.9317 11.9638 14.9317C11.3663 14.9317 10.4749 15.084 9.61997 15.8113L6.07177 18.8996C5.99061 18.9702 5.97621 19.0974 6.0392 19.1869L7.96038 21.9175C7.99153 21.9617 8.03776 21.9908 8.08885 21.9982C8.0974 21.9994 8.10595 22 8.11455 22C8.15696 22 8.19851 21.985 8.23249 21.9568L10.7071 19.9065C10.7627 19.8605 10.8372 19.8432 10.9056 19.8605L14.9024 20.8768C15.1988 20.9522 15.5191 20.9036 15.7843 20.7428L21.3769 17.3536C21.9649 16.9972 22.1739 16.1926 21.8428 15.5599Z" fill="#8000FF"/>
<path d="M19.6201 6H12.3155C12.0783 6 11.8859 6.20699 11.8859 6.46234V8.56619C11.8859 8.82154 12.0783 9.02854 12.3155 9.02854H12.476V13.4958C12.476 13.7512 12.6684 13.9582 12.9057 13.9582H19.0297C19.267 13.9582 19.4594 13.7512 19.4594 13.4958V9.02849H19.62C19.8573 9.02849 20.0497 8.8215 20.0497 8.56615V6.46234C20.0497 6.20699 19.8573 6 19.6201 6ZM16.8716 10.127H15.0639C14.8744 10.127 14.7201 9.96104 14.7201 9.7571C14.7201 9.55316 14.8744 9.38722 15.0639 9.38722H16.8716C17.0612 9.38722 17.2154 9.55316 17.2154 9.7571C17.2154 9.96104 17.0612 10.127 16.8716 10.127ZM19.1904 8.1038H19.0298H12.9057H12.7452V6.92469H19.1904V8.1038Z" fill="#8000FF"/>
</svg>
