<svg width="28" height="28" viewBox="0 0 28 28" fill="none" xmlns="http://www.w3.org/2000/svg">
<rect width="28" height="28" rx="3" fill="#D1EBDC"/>
<path d="M21.7315 15.9178L19.7562 19.3922C19.369 20.0822 18.65 20.4433 17.9231 20.3952H16.3428V22L14.3675 18.3892L16.3428 14.7783V16.3831H18.571L16.8169 13.2939L20.2381 11.2879L21.6604 13.7914C22.0712 14.4092 22.1265 15.2357 21.7315 15.9178ZM11.7679 6H15.7186C16.4929 6 17.1645 6.45737 17.4885 7.11535L18.2786 8.51153L19.6455 7.70913L17.5596 11.2477L13.4904 11.32L14.8574 10.5176L13.7433 8.55165L11.9971 11.6409L8.56792 9.6349L9.99015 7.13139C10.3141 6.4654 10.9857 6 11.7679 6ZM8.48101 19.4002L6.50568 15.9258C6.11852 15.2437 6.17383 14.4253 6.57679 13.8074L7.36692 12.4193L6 11.6169L10.0613 11.681L12.1551 15.2277L10.7882 14.4253L9.6741 16.3831H13.1823V20.3952H10.3378C9.96764 20.4224 9.59738 20.3436 9.26913 20.1677C8.94089 19.9918 8.66783 19.7259 8.48101 19.4002Z" fill="#33B67A"/>
</svg>
