<svg width="20" height="20" viewBox="0 0 20 20" fill="none" xmlns="http://www.w3.org/2000/svg">
<path d="M17.5 1H2.5C1.67157 1 1 1.67157 1 2.5V17.5C1 18.3284 1.67157 19 2.5 19H17.5C18.3284 19 19 18.3284 19 17.5V2.5C19 1.67157 18.3284 1 17.5 1Z" stroke="black" stroke-width="2" stroke-linecap="round" stroke-linejoin="round"/>
<path d="M8.5 6.5H4.5V13.5H8.25M4.5 10H8.25M11 7.5V13.5V10.25C11 9.65326 11.2371 9.08097 11.659 8.65901C12.081 8.23705 12.6533 8 13.25 8C13.8467 8 14.419 8.23705 14.841 8.65901C15.2629 9.08097 15.5 9.65326 15.5 10.25V13.5" stroke="black" stroke-width="2" stroke-linecap="round" stroke-linejoin="round"/>
</svg>
