<svg width="28" height="28" viewBox="0 0 28 28" fill="none" xmlns="http://www.w3.org/2000/svg">
<rect x="0.25" y="0.25" width="27.5" height="27.5" rx="2.75" fill="#D2DBFD"/>
<rect x="0.25" y="0.25" width="27.5" height="27.5" rx="2.75" stroke="#C6C6C6" stroke-width="0.5"/>
<path fill-rule="evenodd" clip-rule="evenodd" d="M6 14C6 9.58177 9.58177 6 14 6C18.4182 6 22 9.58177 22 14C22 18.4182 18.4182 22 14 22C9.58177 22 6 18.4182 6 14ZM14 13.0698C14.148 13.0698 14.29 13.1286 14.3947 13.2332C14.4993 13.3379 14.5581 13.4799 14.5581 13.6279V17.3488C14.5581 17.4969 14.4993 17.6388 14.3947 17.7435C14.29 17.8482 14.148 17.907 14 17.907C13.852 17.907 13.71 17.8482 13.6053 17.7435C13.5007 17.6388 13.4419 17.4969 13.4419 17.3488V13.6279C13.4419 13.4799 13.5007 13.3379 13.6053 13.2332C13.71 13.1286 13.852 13.0698 14 13.0698ZM14.4227 11.0233C14.4733 10.969 14.5126 10.9053 14.5383 10.8357C14.564 10.7661 14.5755 10.6922 14.5723 10.6181C14.5691 10.544 14.5511 10.4713 14.5195 10.4042C14.4878 10.3371 14.4431 10.277 14.388 10.2274C14.3328 10.1778 14.2684 10.1397 14.1983 10.1153C14.1283 10.0909 14.0541 10.0807 13.9801 10.0853C13.9061 10.0899 13.8337 10.1092 13.7672 10.1421C13.7008 10.175 13.6415 10.2208 13.5929 10.2768L13.5855 10.285C13.5346 10.3391 13.4951 10.4029 13.4691 10.4725C13.4432 10.5421 13.4314 10.6162 13.4345 10.6904C13.4376 10.7646 13.4554 10.8375 13.487 10.9047C13.5186 10.9719 13.5633 11.0322 13.6185 11.0819C13.6737 11.1316 13.7382 11.1698 13.8084 11.1943C13.8785 11.2188 13.9528 11.229 14.027 11.2243C14.1011 11.2197 14.1736 11.2003 14.2401 11.1673C14.3067 11.1343 14.3659 11.0884 14.4145 11.0322L14.4227 11.0233Z" fill="#4268F1"/>
</svg>
