<svg width="80" height="80" viewBox="0 0 80 80" fill="none" xmlns="http://www.w3.org/2000/svg">
<path d="M30 -3.16215e-06C26.0603 -2.74689e-06 22.1593 1.03463 18.5195 3.04482C14.8797 5.05501 11.5726 8.00138 8.78679 11.7157C6.00104 15.4301 3.79125 19.8396 2.28361 24.6927C0.775972 29.5457 -9.9251e-07 34.7471 -7.25083e-07 40C-4.57655e-07 45.2529 0.775973 50.4543 2.28361 55.3073C3.79126 60.1604 6.00104 64.5699 8.7868 68.2843C11.5726 71.9986 14.8797 74.945 18.5195 76.9552C22.1593 78.9654 26.0603 80 30 80L30 40L30 -3.16215e-06Z" fill="#5EB248"/>
<path d="M40 38.9744C40 17.4494 57.4494 0 78.9744 0H80V77.9487H78.9744C57.4494 77.9487 40 60.4993 40 38.9744V38.9744Z" fill="#594ED1"/>
</svg>
