<svg width="28" height="28" viewBox="0 0 28 28" fill="none" xmlns="http://www.w3.org/2000/svg">
<rect x="0.25" y="0.25" width="27.5" height="27.5" rx="2.75" fill="#D2DBFD"/>
<rect x="0.25" y="0.25" width="27.5" height="27.5" rx="2.75" stroke="#C6C6C6" stroke-width="0.5"/>
<path fill-rule="evenodd" clip-rule="evenodd" d="M10 4C9.87439 3.99999 9.75054 4.0264 9.63848 4.07707C9.52642 4.12775 9.4293 4.20127 9.35499 4.29169C9.28067 4.38211 9.23124 4.48689 9.21071 4.59753C9.19018 4.70818 9.19912 4.82158 9.2368 4.92857L9.4128 5.42857H6.8C6.58783 5.42857 6.38434 5.50383 6.23431 5.63778C6.08429 5.77174 6 5.95342 6 6.14286V23.2857C6 23.4752 6.08429 23.6568 6.23431 23.7908C6.38434 23.9247 6.58783 24 6.8 24H21.2C21.4122 24 21.6157 23.9247 21.7657 23.7908C21.9157 23.6568 22 23.4752 22 23.2857V6.14286C22 5.95342 21.9157 5.77174 21.7657 5.63778C21.6157 5.50383 21.4122 5.42857 21.2 5.42857H18.5888L18.7648 4.92857C18.8025 4.82147 18.8114 4.70793 18.7908 4.59718C18.7702 4.48642 18.7206 4.38157 18.6461 4.29112C18.5716 4.20067 18.4743 4.12717 18.3621 4.07659C18.2498 4.02601 18.1257 3.99977 18 4H10ZM11.088 5.42857H16.912L16.4112 6.85714H11.5888L11.088 5.42857ZM13.7664 18.0771L19.3664 13.0771L18.2352 12.0657L13.2 16.5614L10.5664 14.2086L9.4336 15.22L12.6336 18.0771C12.7079 18.1437 12.7962 18.1964 12.8934 18.2324C12.9906 18.2685 13.0948 18.287 13.2 18.287C13.3052 18.287 13.4094 18.2685 13.5066 18.2324C13.6038 18.1964 13.6921 18.1437 13.7664 18.0771Z" fill="#4268F1"/>
</svg>
