<svg width="28" height="28" viewBox="0 0 28 28" fill="none" xmlns="http://www.w3.org/2000/svg">
<rect x="0.25" y="0.25" width="27.5" height="27.5" rx="2.75" fill="#FEE6D7"/>
<rect x="0.25" y="0.25" width="27.5" height="27.5" rx="2.75" stroke="#C6C6C6" stroke-width="0.5"/>
<path d="M13.8444 15.8H16.6667C16.9185 15.8 17.1298 15.7136 17.3004 15.5408C17.4711 15.368 17.5561 15.1544 17.5556 14.9C17.555 14.6456 17.4696 14.432 17.2996 14.2592C17.1295 14.0864 16.9185 14 16.6667 14H13.8444L14.6444 13.19C14.8074 13.025 14.8889 12.8189 14.8889 12.5717C14.8889 12.3245 14.8 12.1106 14.6222 11.93C14.4593 11.765 14.2519 11.6825 14 11.6825C13.7481 11.6825 13.5407 11.765 13.3778 11.93L11.0667 14.27C10.8889 14.45 10.8 14.66 10.8 14.9C10.8 15.14 10.8889 15.35 11.0667 15.53L13.3778 17.87C13.5407 18.035 13.7446 18.1211 13.9893 18.1283C14.2341 18.1355 14.445 18.0494 14.6222 17.87C14.7852 17.705 14.8667 17.495 14.8667 17.24C14.8667 16.985 14.7852 16.775 14.6222 16.61L13.8444 15.8ZM7.77778 23C7.28889 23 6.87052 22.8239 6.52267 22.4717C6.17481 22.1195 6.00059 21.6956 6 21.2V8.6C6 8.105 6.17422 7.6814 6.52267 7.3292C6.87111 6.977 7.28948 6.8006 7.77778 6.8H11.5111C11.7037 6.26 12.0261 5.825 12.4782 5.495C12.9304 5.165 13.4376 5 14 5C14.5624 5 15.0699 5.165 15.5227 5.495C15.9754 5.825 16.2975 6.26 16.4889 6.8H20.2222C20.7111 6.8 21.1298 6.9764 21.4782 7.3292C21.8267 7.682 22.0006 8.1056 22 8.6V21.2C22 21.695 21.8261 22.1189 21.4782 22.4717C21.1304 22.8245 20.7117 23.0006 20.2222 23H7.77778ZM14 7.925C14.1926 7.925 14.352 7.8611 14.4782 7.7333C14.6044 7.6055 14.6673 7.4444 14.6667 7.25C14.6661 7.0556 14.603 6.8945 14.4773 6.7667C14.3517 6.6389 14.1926 6.575 14 6.575C13.8074 6.575 13.6483 6.6389 13.5227 6.7667C13.397 6.8945 13.3339 7.0556 13.3333 7.25C13.3327 7.4444 13.3959 7.6058 13.5227 7.7342C13.6495 7.8626 13.8086 7.9262 14 7.925Z" fill="#F09457"/>
</svg>
