<svg width="28" height="28" viewBox="0 0 28 28" fill="none" xmlns="http://www.w3.org/2000/svg">
<rect x="0.25" y="0.25" width="27.5" height="27.5" rx="2.75" fill="#D0EADB"/>
<rect x="0.25" y="0.25" width="27.5" height="27.5" rx="2.75" stroke="#C6C6C6" stroke-width="0.5"/>
<path d="M13.8049 6C14.878 6 15.7561 6.72 15.7561 7.6C15.7561 8.48 14.878 9.2 13.8049 9.2C12.7317 9.2 11.8537 8.48 11.8537 7.6C11.8537 6.72 12.7317 6 13.8049 6ZM17.6098 10.88C17.2195 10.56 16.5366 10 15.2683 10H12.8293C10.0976 10 7.95122 8.24 7.95122 6H6C6 8.56 8.04878 10.64 10.878 11.36V22H12.8293V17.2H14.7805V22H16.7317V12.48L20.6341 15.6L22 14.48L17.6098 10.88Z" fill="#008F52"/>
</svg>
