<svg width="375" height="812" viewBox="0 0 375 812" fill="none" xmlns="http://www.w3.org/2000/svg">
<g clip-path="url(#clip0_726_83)">
<rect width="375" height="812" fill="#180B26"/>
<circle cx="115" cy="509" r="97" fill="#DF1463"/>
<g filter="url(#filter0_i_726_83)">
<path d="M283.902 514.889C281.002 514.889 275.348 540.569 274.913 541.573L272.158 550.612H295.355C292.504 538.704 286.221 514.889 283.902 514.889Z" fill="#F02B78"/>
</g>
<g filter="url(#filter1_i_726_83)">
<path d="M248.601 528.806C246.513 528.806 242.442 547.15 242.129 547.867L240.146 554.323H256.847C254.794 545.817 250.271 528.806 248.601 528.806Z" fill="#F02B78"/>
</g>
<g filter="url(#filter2_i_726_83)">
<path d="M131.44 551.539C129.643 551.539 126.137 567.881 125.867 568.52L124.159 574.272H138.541C136.774 566.694 132.879 551.539 131.44 551.539Z" fill="#F1488A"/>
</g>
<g filter="url(#filter3_i_726_83)">
<path d="M124.229 558.962C122.838 558.962 120.124 571.302 119.915 571.784L118.593 576.128H129.727C128.358 570.406 125.343 558.962 124.229 558.962Z" fill="#F1488A"/>
</g>
<g filter="url(#filter4_i_726_83)">
<path d="M137.439 558.498C136.337 558.498 134.189 568.837 134.024 569.241L132.977 572.88H141.792C140.708 568.086 138.321 558.498 137.439 558.498Z" fill="#F1488A"/>
</g>
<g filter="url(#filter5_i_726_83)">
<path d="M273.488 510.713C269.951 510.713 263.052 542.063 262.522 543.289L259.161 554.323H287.461C283.983 539.786 276.318 510.713 273.488 510.713Z" fill="#F02B78"/>
</g>
<g filter="url(#filter6_i_726_83)">
<path d="M340.298 481.486C336.76 481.486 329.862 512.836 329.332 514.062L325.971 525.096H354.271C350.792 510.559 343.128 481.486 340.298 481.486Z" fill="#F02B78"/>
</g>
<g filter="url(#filter7_i_726_83)">
<path d="M-210.023 481.486C-252.723 481.486 -276.611 508.398 -279 510.193V670.771H217.874C217.874 620.833 243.391 568.706 172.872 581.063C112.283 591.68 58.7444 514.977 -29.6657 514.977C-64.901 514.977 -72.9633 529.63 -107.004 529.63C-141.045 529.63 -167.322 481.486 -210.023 481.486Z" fill="#E54382"/>
</g>
<g filter="url(#filter8_i_726_83)">
<path d="M331.096 509.321C367.557 509.321 387.954 532.276 389.994 533.806V670.77H-8.52588C-8.52588 628.176 29.4648 594.254 81.9889 594.254C134.513 594.254 147.007 537.887 177.093 537.887C207.18 537.887 214.064 550.385 243.131 550.385C272.197 550.385 294.635 509.321 331.096 509.321Z" fill="#DF1463"/>
</g>
<g filter="url(#filter9_i_726_83)">
<path d="M234.806 558.962C230.166 558.962 221.12 603.268 220.424 604.892L216.016 619.505H253.131C248.569 600.252 238.517 558.962 234.806 558.962Z" fill="#180B26"/>
</g>
<g filter="url(#filter10_i_726_83)">
<path d="M343.368 552.467C338.729 552.467 329.682 593.989 328.986 595.613L324.579 610.227H361.693C357.131 590.974 347.079 552.467 343.368 552.467Z" fill="#180B26"/>
</g>
<g filter="url(#filter11_i_726_83)">
<path d="M179.133 588.19C174.494 588.19 165.447 629.712 164.751 631.336L160.344 645.95H197.459C192.897 626.696 182.845 588.19 179.133 588.19Z" fill="#180B26"/>
</g>
<path d="M104.223 670.938C104.662 669.759 105.376 667.119 104.724 665.989C103.91 664.577 103.371 662.999 104.828 661.742" stroke="#180B26" stroke-width="0.243854" stroke-linecap="round"/>
<path d="M104.223 670.938C104.662 669.759 105.376 667.119 104.724 665.989C103.91 664.577 103.371 662.999 104.828 661.742" stroke="#180B26" stroke-width="0.243854" stroke-linecap="round"/>
<path d="M180.768 541.333C180.768 540.869 183.088 537.621 180.768 534.374" stroke="#F02B78" stroke-width="0.406424" stroke-linecap="round"/>
<path d="M181.698 536.462C181.698 535.998 181.976 535.023 183.089 534.838" stroke="#F02B78" stroke-width="0.406424" stroke-linecap="round"/>
<path d="M114.881 568.705C114.881 568.241 117.201 564.993 114.881 561.746" stroke="#F1488A" stroke-width="0.406424" stroke-linecap="round"/>
<path d="M115.81 563.834C115.81 563.37 116.088 562.395 117.202 562.21" stroke="#F1488A" stroke-width="0.406424" stroke-linecap="round"/>
<path d="M72.6602 586.102C73.2787 587.03 74.4231 589.396 74.052 591.438" stroke="#E54382" stroke-width="1.21927" stroke-linecap="square"/>
<path d="M76.3718 586.102C76.9904 587.03 78.1348 589.396 77.7636 591.438" stroke="#E54382" stroke-width="1.21927" stroke-linecap="square"/>
<path d="M54.1768 586.102C53.5582 587.03 52.4138 589.396 52.785 591.438" stroke="#E54382" stroke-width="1.21927" stroke-linecap="square"/>
<path d="M54.1768 586.102C53.5582 587.03 52.4138 589.396 52.785 591.438" stroke="#E54382" stroke-width="1.21927" stroke-linecap="square"/>
<path d="M50.4666 586.102C49.848 587.03 48.7036 589.396 49.0747 591.438" stroke="#E54382" stroke-width="1.21927" stroke-linecap="square"/>
<path d="M50.4666 586.102C49.848 587.03 48.7036 589.396 49.0747 591.438" stroke="#E54382" stroke-width="1.21927" stroke-linecap="square"/>
<path d="M346.735 579.84C373.518 579.84 388.502 596.726 390 597.852V698.607H97.2573C97.2573 667.273 125.164 642.319 163.747 642.319C202.33 642.319 211.508 600.854 233.608 600.854C255.709 600.854 260.766 610.047 282.118 610.047C303.47 610.047 319.952 579.84 346.735 579.84Z" fill="#180B26"/>
<path d="M-30.3465 598.266C-55.0309 598.266 -86.4007 586.089 -99 580V693.2H225.754C192.156 655.467 114.057 580 70.4483 580C15.9368 580 0.509071 598.266 -30.3465 598.266Z" fill="#180B26"/>
<path d="M248.043 38.5935C249.389 37.4782 251.941 36.6608 253.841 39.6643C254.742 38.0318 256.139 35.9334 259.536 37.8589" stroke="white" stroke-width="1.4" stroke-linecap="round"/>
<path d="M244 53.9228C245.084 53.0886 247.103 52.5213 248.505 54.9239C249.256 53.6726 250.407 52.0709 253.01 53.6726" stroke="white" stroke-width="1.4" stroke-linecap="round"/>
<path d="M266.305 54.9304C266.72 53.8832 267.898 52.6935 269.865 54.0234C269.875 52.7789 270.021 51.1151 272.499 51.3799" stroke="white" stroke-width="1.4" stroke-linecap="round"/>
</g>
<defs>
<filter id="filter0_i_726_83" x="272.158" y="514.889" width="23.1968" height="35.723" filterUnits="userSpaceOnUse" color-interpolation-filters="sRGB">
<feFlood flood-opacity="0" result="BackgroundImageFix"/>
<feBlend mode="normal" in="SourceGraphic" in2="BackgroundImageFix" result="shape"/>
<feColorMatrix in="SourceAlpha" type="matrix" values="0 0 0 0 0 0 0 0 0 0 0 0 0 0 0 0 0 0 127 0" result="hardAlpha"/>
<feOffset dx="-1.21927" dy="5.28351"/>
<feComposite in2="hardAlpha" operator="arithmetic" k2="-1" k3="1"/>
<feColorMatrix type="matrix" values="0 0 0 0 1 0 0 0 0 1 0 0 0 0 1 0 0 0 0.25 0"/>
<feBlend mode="normal" in2="shape" result="effect1_innerShadow_726_83"/>
</filter>
<filter id="filter1_i_726_83" x="240.146" y="528.806" width="16.7017" height="25.5164" filterUnits="userSpaceOnUse" color-interpolation-filters="sRGB">
<feFlood flood-opacity="0" result="BackgroundImageFix"/>
<feBlend mode="normal" in="SourceGraphic" in2="BackgroundImageFix" result="shape"/>
<feColorMatrix in="SourceAlpha" type="matrix" values="0 0 0 0 0 0 0 0 0 0 0 0 0 0 0 0 0 0 127 0" result="hardAlpha"/>
<feOffset dx="-1.21927" dy="5.28351"/>
<feComposite in2="hardAlpha" operator="arithmetic" k2="-1" k3="1"/>
<feColorMatrix type="matrix" values="0 0 0 0 1 0 0 0 0 1 0 0 0 0 1 0 0 0 0.25 0"/>
<feBlend mode="normal" in2="shape" result="effect1_innerShadow_726_83"/>
</filter>
<filter id="filter2_i_726_83" x="124.159" y="551.539" width="14.3821" height="22.7328" filterUnits="userSpaceOnUse" color-interpolation-filters="sRGB">
<feFlood flood-opacity="0" result="BackgroundImageFix"/>
<feBlend mode="normal" in="SourceGraphic" in2="BackgroundImageFix" result="shape"/>
<feColorMatrix in="SourceAlpha" type="matrix" values="0 0 0 0 0 0 0 0 0 0 0 0 0 0 0 0 0 0 127 0" result="hardAlpha"/>
<feOffset dx="-0.812848" dy="3.25139"/>
<feComposite in2="hardAlpha" operator="arithmetic" k2="-1" k3="1"/>
<feColorMatrix type="matrix" values="0 0 0 0 1 0 0 0 0 1 0 0 0 0 1 0 0 0 0.25 0"/>
<feBlend mode="normal" in2="shape" result="effect1_innerShadow_726_83"/>
</filter>
<filter id="filter3_i_726_83" x="118.593" y="558.962" width="11.1345" height="17.1656" filterUnits="userSpaceOnUse" color-interpolation-filters="sRGB">
<feFlood flood-opacity="0" result="BackgroundImageFix"/>
<feBlend mode="normal" in="SourceGraphic" in2="BackgroundImageFix" result="shape"/>
<feColorMatrix in="SourceAlpha" type="matrix" values="0 0 0 0 0 0 0 0 0 0 0 0 0 0 0 0 0 0 127 0" result="hardAlpha"/>
<feOffset dx="-0.812848" dy="3.25139"/>
<feComposite in2="hardAlpha" operator="arithmetic" k2="-1" k3="1"/>
<feColorMatrix type="matrix" values="0 0 0 0 1 0 0 0 0 1 0 0 0 0 1 0 0 0 0.25 0"/>
<feBlend mode="normal" in2="shape" result="effect1_innerShadow_726_83"/>
</filter>
<filter id="filter4_i_726_83" x="132.977" y="558.498" width="8.8147" height="14.382" filterUnits="userSpaceOnUse" color-interpolation-filters="sRGB">
<feFlood flood-opacity="0" result="BackgroundImageFix"/>
<feBlend mode="normal" in="SourceGraphic" in2="BackgroundImageFix" result="shape"/>
<feColorMatrix in="SourceAlpha" type="matrix" values="0 0 0 0 0 0 0 0 0 0 0 0 0 0 0 0 0 0 127 0" result="hardAlpha"/>
<feOffset dx="-0.812848" dy="3.25139"/>
<feComposite in2="hardAlpha" operator="arithmetic" k2="-1" k3="1"/>
<feColorMatrix type="matrix" values="0 0 0 0 1 0 0 0 0 1 0 0 0 0 1 0 0 0 0.25 0"/>
<feBlend mode="normal" in2="shape" result="effect1_innerShadow_726_83"/>
</filter>
<filter id="filter5_i_726_83" x="259.161" y="510.713" width="28.3" height="43.6099" filterUnits="userSpaceOnUse" color-interpolation-filters="sRGB">
<feFlood flood-opacity="0" result="BackgroundImageFix"/>
<feBlend mode="normal" in="SourceGraphic" in2="BackgroundImageFix" result="shape"/>
<feColorMatrix in="SourceAlpha" type="matrix" values="0 0 0 0 0 0 0 0 0 0 0 0 0 0 0 0 0 0 127 0" result="hardAlpha"/>
<feOffset dx="-1.21927" dy="5.28351"/>
<feComposite in2="hardAlpha" operator="arithmetic" k2="-1" k3="1"/>
<feColorMatrix type="matrix" values="0 0 0 0 1 0 0 0 0 1 0 0 0 0 1 0 0 0 0.25 0"/>
<feBlend mode="normal" in2="shape" result="effect1_innerShadow_726_83"/>
</filter>
<filter id="filter6_i_726_83" x="325.971" y="481.486" width="28.3" height="43.6099" filterUnits="userSpaceOnUse" color-interpolation-filters="sRGB">
<feFlood flood-opacity="0" result="BackgroundImageFix"/>
<feBlend mode="normal" in="SourceGraphic" in2="BackgroundImageFix" result="shape"/>
<feColorMatrix in="SourceAlpha" type="matrix" values="0 0 0 0 0 0 0 0 0 0 0 0 0 0 0 0 0 0 127 0" result="hardAlpha"/>
<feOffset dx="-1.21927" dy="5.28351"/>
<feComposite in2="hardAlpha" operator="arithmetic" k2="-1" k3="1"/>
<feColorMatrix type="matrix" values="0 0 0 0 1 0 0 0 0 1 0 0 0 0 1 0 0 0 0.25 0"/>
<feBlend mode="normal" in2="shape" result="effect1_innerShadow_726_83"/>
</filter>
<filter id="filter7_i_726_83" x="-279.406" y="481.486" width="501.778" height="189.692" filterUnits="userSpaceOnUse" color-interpolation-filters="sRGB">
<feFlood flood-opacity="0" result="BackgroundImageFix"/>
<feBlend mode="normal" in="SourceGraphic" in2="BackgroundImageFix" result="shape"/>
<feColorMatrix in="SourceAlpha" type="matrix" values="0 0 0 0 0 0 0 0 0 0 0 0 0 0 0 0 0 0 127 0" result="hardAlpha"/>
<feOffset dx="-3.25139" dy="5.28351"/>
<feGaussianBlur stdDeviation="0.203212"/>
<feComposite in2="hardAlpha" operator="arithmetic" k2="-1" k3="1"/>
<feColorMatrix type="matrix" values="0 0 0 0 0.945833 0 0 0 0 0.28375 0 0 0 0 0.541227 0 0 0 1 0"/>
<feBlend mode="normal" in2="shape" result="effect1_innerShadow_726_83"/>
</filter>
<filter id="filter8_i_726_83" x="-8.52588" y="509.321" width="398.926" height="161.856" filterUnits="userSpaceOnUse" color-interpolation-filters="sRGB">
<feFlood flood-opacity="0" result="BackgroundImageFix"/>
<feBlend mode="normal" in="SourceGraphic" in2="BackgroundImageFix" result="shape"/>
<feColorMatrix in="SourceAlpha" type="matrix" values="0 0 0 0 0 0 0 0 0 0 0 0 0 0 0 0 0 0 127 0" result="hardAlpha"/>
<feOffset dx="3.65782" dy="4.06424"/>
<feGaussianBlur stdDeviation="0.203212"/>
<feComposite in2="hardAlpha" operator="arithmetic" k2="-1" k3="1"/>
<feColorMatrix type="matrix" values="0 0 0 0 0.941667 0 0 0 0 0.168715 0 0 0 0 0.469519 0 0 0 1 0"/>
<feBlend mode="normal" in2="shape" result="effect1_innerShadow_726_83"/>
</filter>
<filter id="filter9_i_726_83" x="216.016" y="558.962" width="37.1147" height="60.5435" filterUnits="userSpaceOnUse" color-interpolation-filters="sRGB">
<feFlood flood-opacity="0" result="BackgroundImageFix"/>
<feBlend mode="normal" in="SourceGraphic" in2="BackgroundImageFix" result="shape"/>
<feColorMatrix in="SourceAlpha" type="matrix" values="0 0 0 0 0 0 0 0 0 0 0 0 0 0 0 0 0 0 127 0" result="hardAlpha"/>
<feOffset dx="-1.21927" dy="5.28351"/>
<feComposite in2="hardAlpha" operator="arithmetic" k2="-1" k3="1"/>
<feColorMatrix type="matrix" values="0 0 0 0 0.4 0 0 0 0 0.4 0 0 0 0 0.4 0 0 0 0.25 0"/>
<feBlend mode="normal" in2="shape" result="effect1_innerShadow_726_83"/>
</filter>
<filter id="filter10_i_726_83" x="324.579" y="552.467" width="37.1147" height="57.7599" filterUnits="userSpaceOnUse" color-interpolation-filters="sRGB">
<feFlood flood-opacity="0" result="BackgroundImageFix"/>
<feBlend mode="normal" in="SourceGraphic" in2="BackgroundImageFix" result="shape"/>
<feColorMatrix in="SourceAlpha" type="matrix" values="0 0 0 0 0 0 0 0 0 0 0 0 0 0 0 0 0 0 127 0" result="hardAlpha"/>
<feOffset dx="-1.21927" dy="5.28351"/>
<feComposite in2="hardAlpha" operator="arithmetic" k2="-1" k3="1"/>
<feColorMatrix type="matrix" values="0 0 0 0 0.4 0 0 0 0 0.4 0 0 0 0 0.4 0 0 0 0.25 0"/>
<feBlend mode="normal" in2="shape" result="effect1_innerShadow_726_83"/>
</filter>
<filter id="filter11_i_726_83" x="160.344" y="588.19" width="37.1147" height="57.7599" filterUnits="userSpaceOnUse" color-interpolation-filters="sRGB">
<feFlood flood-opacity="0" result="BackgroundImageFix"/>
<feBlend mode="normal" in="SourceGraphic" in2="BackgroundImageFix" result="shape"/>
<feColorMatrix in="SourceAlpha" type="matrix" values="0 0 0 0 0 0 0 0 0 0 0 0 0 0 0 0 0 0 127 0" result="hardAlpha"/>
<feOffset dx="-1.21927" dy="5.28351"/>
<feComposite in2="hardAlpha" operator="arithmetic" k2="-1" k3="1"/>
<feColorMatrix type="matrix" values="0 0 0 0 0.4 0 0 0 0 0.4 0 0 0 0 0.4 0 0 0 0.25 0"/>
<feBlend mode="normal" in2="shape" result="effect1_innerShadow_726_83"/>
</filter>
<clipPath id="clip0_726_83">
<rect width="375" height="812" fill="white"/>
</clipPath>
</defs>
</svg>
