<svg width="1200" height="630" viewBox="0 0 1200 630" fill="none" xmlns="http://www.w3.org/2000/svg">
<g clip-path="url(#clip0_726_147)">
<rect width="1200" height="630" fill="#180B26"/>
<circle cx="248" cy="299" r="97" fill="#DF1463"/>
<g filter="url(#filter0_i_726_147)">
<path d="M1009.69 348.359C1004.49 348.359 994.346 394.662 993.566 396.472L988.625 412.769H1030.23C1025.12 391.299 1013.85 348.359 1009.69 348.359Z" fill="#F02B78"/>
</g>
<g filter="url(#filter1_i_726_147)">
<path d="M946.369 373.453C942.624 373.453 935.322 406.526 934.76 407.82L931.203 419.46H961.161C957.478 404.124 949.365 373.453 946.369 373.453Z" fill="#F02B78"/>
</g>
<g filter="url(#filter2_i_726_147)">
<path d="M454.368 316.572C451.143 316.572 445.433 346.037 444.949 347.189L441.885 357.56H467.683C464.512 343.897 456.948 316.572 454.368 316.572Z" fill="#F1488A"/>
</g>
<g filter="url(#filter3_i_726_147)">
<path d="M736.216 414.441C732.991 414.441 726.703 443.906 726.219 445.058L723.156 455.429H748.953C745.782 441.766 738.795 414.441 736.216 414.441Z" fill="#F1488A"/>
</g>
<g filter="url(#filter4_i_726_147)">
<path d="M442.014 329.957C439.517 329.957 434.649 352.206 434.275 353.076L431.903 360.907H451.875C449.42 350.59 444.011 329.957 442.014 329.957Z" fill="#F1488A"/>
</g>
<g filter="url(#filter5_i_726_147)">
<path d="M723.281 427.824C720.785 427.824 715.917 450.073 715.542 450.944L713.17 458.774H733.142C730.688 448.458 725.278 427.824 723.281 427.824Z" fill="#F1488A"/>
</g>
<g filter="url(#filter6_i_726_147)">
<path d="M465.697 329.12C463.721 329.12 459.867 347.761 459.57 348.49L457.693 355.051H473.504C471.561 346.407 467.278 329.12 465.697 329.12Z" fill="#F1488A"/>
</g>
<g filter="url(#filter7_i_726_147)">
<path d="M746.976 426.987C745 426.987 741.146 445.629 740.85 446.358L738.972 452.918H754.783C752.84 444.275 748.557 426.987 746.976 426.987Z" fill="#F1488A"/>
</g>
<g filter="url(#filter8_i_726_147)">
<path d="M991.01 340.83C984.665 340.83 972.291 397.355 971.34 399.566L965.312 419.46H1016.07C1009.83 393.25 996.086 340.83 991.01 340.83Z" fill="#F02B78"/>
</g>
<g filter="url(#filter9_i_726_147)">
<path d="M1110.85 288.133C1104.5 288.133 1092.13 344.658 1091.18 346.869L1085.15 366.763H1135.91C1129.67 340.553 1115.92 288.133 1110.85 288.133Z" fill="#F02B78"/>
</g>
<g filter="url(#filter10_i_726_147)">
<path d="M70.1296 253C65.7607 253 57.2413 293.289 56.586 294.864L52.4355 309.044H87.3867C83.0906 290.363 73.6247 253 70.1296 253Z" fill="#F1488A"/>
</g>
<g filter="url(#filter11_i_726_147)">
<path d="M52.5949 271.402C49.2662 271.402 42.7753 302.07 42.276 303.269L39.1138 314.063H65.7432C62.47 299.843 55.2579 271.402 52.5949 271.402Z" fill="#F1488A"/>
</g>
<g filter="url(#filter12_i_726_147)">
<path d="M85.0155 270.566C82.3109 270.566 77.037 295.821 76.6313 296.809L74.062 305.698H95.6984C93.039 293.987 87.1791 270.566 85.0155 270.566Z" fill="#F1488A"/>
</g>
<g filter="url(#filter13_i_726_147)">
<path d="M123.726 288.133C47.1335 288.133 4.28491 336.657 0 339.892V629.419H891.254C891.254 539.38 937.024 445.392 810.533 467.672C701.853 486.815 605.819 348.519 447.236 348.519C384.034 348.519 369.573 374.937 308.513 374.937C247.453 374.937 200.319 288.133 123.726 288.133Z" fill="#E54382"/>
</g>
<g filter="url(#filter14_i_726_147)">
<path d="M1094.34 338.321C1159.74 338.321 1196.33 379.709 1199.99 382.468V629.417H485.155C485.155 552.619 553.3 491.457 647.514 491.457C741.727 491.457 764.137 389.826 818.104 389.826C872.071 389.826 884.42 412.36 936.557 412.36C988.695 412.36 1028.94 338.321 1094.34 338.321Z" fill="#DF1463"/>
</g>
<g filter="url(#filter15_i_726_147)">
<path d="M921.625 427.824C913.303 427.824 897.076 507.709 895.827 510.636L887.922 536.985H954.495C946.312 502.271 928.282 427.824 921.625 427.824Z" fill="#180B26"/>
</g>
<g filter="url(#filter16_i_726_147)">
<path d="M1116.35 416.114C1108.03 416.114 1091.81 490.98 1090.56 493.907L1082.65 520.257H1149.23C1141.04 485.542 1123.01 416.114 1116.35 416.114Z" fill="#180B26"/>
</g>
<g filter="url(#filter17_i_726_147)">
<path d="M821.763 480.523C813.441 480.523 797.214 555.388 795.966 558.316L788.06 584.665H854.634C846.451 549.951 828.421 480.523 821.763 480.523Z" fill="#180B26"/>
</g>
<g filter="url(#filter18_i_726_147)">
<path d="M66.9949 415.278C58.6732 415.278 42.4459 490.143 41.1976 493.071L33.292 519.42H99.8656C91.6826 484.706 73.6522 415.278 66.9949 415.278Z" fill="#180B26"/>
</g>
<g filter="url(#filter19_i_726_147)">
<path d="M208.758 424.479C202.829 424.479 191.267 479.2 190.377 481.34L184.745 500.599H232.178C226.348 475.226 213.501 424.479 208.758 424.479Z" fill="#180B26"/>
</g>
<path d="M687.396 629.719C688.183 627.594 689.463 622.834 688.295 620.797C686.835 618.25 685.866 615.406 688.481 613.138" stroke="#180B26" stroke-width="0.243854" stroke-linecap="round"/>
<path d="M687.396 629.719C688.183 627.594 689.463 622.834 688.295 620.797C686.835 618.25 685.866 615.406 688.481 613.138" stroke="#180B26" stroke-width="0.243854" stroke-linecap="round"/>
<path d="M301.28 275.245C302.401 274.312 304.524 273.628 306.106 276.14C306.856 274.775 308.018 273.02 310.845 274.63" stroke="black" stroke-width="0.568994" stroke-linecap="round"/>
<path d="M297.917 288.067C298.82 287.369 300.5 286.895 301.666 288.905C302.291 287.858 303.249 286.518 305.415 287.858" stroke="black" stroke-width="0.568994" stroke-linecap="round"/>
<path d="M316.482 288.911C316.828 288.034 317.808 287.039 319.445 288.152C319.453 287.111 319.575 285.719 321.636 285.941" stroke="black" stroke-width="0.568994" stroke-linecap="round"/>
<path d="M824.696 396.038C824.696 395.202 828.857 389.346 824.696 383.491" stroke="#F02B78" stroke-width="0.406424" stroke-linecap="round"/>
<path d="M826.363 387.256C826.363 386.419 826.862 384.662 828.86 384.328" stroke="#F02B78" stroke-width="0.406424" stroke-linecap="round"/>
<path d="M706.513 445.391C706.513 444.554 710.674 438.699 706.513 432.844" stroke="#F1488A" stroke-width="0.406424" stroke-linecap="round"/>
<path d="M708.179 436.608C708.179 435.771 708.679 434.015 710.676 433.68" stroke="#F1488A" stroke-width="0.406424" stroke-linecap="round"/>
<path d="M630.781 476.759C631.89 478.432 633.943 482.698 633.277 486.379" stroke="#E54382" stroke-width="1.21927" stroke-linecap="square"/>
<path d="M637.438 476.759C638.548 478.432 640.601 482.698 639.935 486.379" stroke="#E54382" stroke-width="1.21927" stroke-linecap="square"/>
<path d="M597.626 476.759C596.517 478.432 594.464 482.698 595.13 486.379" stroke="#E54382" stroke-width="1.21927" stroke-linecap="square"/>
<path d="M597.626 476.759C596.517 478.432 594.464 482.698 595.13 486.379" stroke="#E54382" stroke-width="1.21927" stroke-linecap="square"/>
<path d="M590.971 476.759C589.862 478.432 587.809 482.698 588.475 486.379" stroke="#E54382" stroke-width="1.21927" stroke-linecap="square"/>
<path d="M590.971 476.759C589.862 478.432 587.809 482.698 588.475 486.379" stroke="#E54382" stroke-width="1.21927" stroke-linecap="square"/>
<path d="M1122.39 465.467C1170.44 465.467 1197.31 495.914 1200 497.943V679.607H674.901C674.901 623.112 724.959 578.119 794.166 578.119C863.372 578.119 879.834 503.356 919.477 503.356C959.12 503.356 968.191 519.932 1006.49 519.932C1044.79 519.932 1074.35 465.467 1122.39 465.467Z" fill="#180B26"/>
<g filter="url(#filter20_i_726_147)">
<path d="M176.298 437.027C170.369 437.027 158.807 491.748 157.918 493.888L152.285 513.147H199.719C193.888 487.774 181.042 437.027 176.298 437.027Z" fill="#180B26"/>
</g>
<path d="M446.015 498.691C401.738 498.691 345.47 476.735 322.87 465.756V669.858H905.389C845.123 601.824 705.036 465.756 626.813 465.756C529.035 465.756 501.361 498.691 446.015 498.691Z" fill="#180B26"/>
<path d="M1112.04 85.5935C1113.39 84.4782 1115.94 83.6608 1117.84 86.6643C1118.74 85.0318 1120.14 82.9334 1123.54 84.8589" stroke="white" stroke-width="1.4" stroke-linecap="round"/>
<path d="M1108 100.923C1109.08 100.089 1111.1 99.5213 1112.5 101.924C1113.26 100.673 1114.41 99.0708 1117.01 100.673" stroke="white" stroke-width="1.4" stroke-linecap="round"/>
<path d="M1130.31 101.93C1130.72 100.883 1131.9 99.6934 1133.86 101.023C1133.88 99.7789 1134.02 98.115 1136.5 98.3799" stroke="white" stroke-width="1.4" stroke-linecap="round"/>
<path d="M1095.04 81.5935C1096.39 80.4782 1098.94 79.6608 1100.84 82.6643C1101.74 81.0318 1103.14 78.9334 1106.54 80.8589" stroke="white" stroke-width="1.4" stroke-linecap="round"/>
<path d="M1098 93.9228C1099.08 93.0886 1101.1 92.5213 1102.5 94.9239C1103.26 93.6726 1104.41 92.0709 1107.01 93.6726" stroke="white" stroke-width="1.4" stroke-linecap="round"/>
<path d="M1120.38 96.0691C1120.79 95.0218 1121.97 93.8321 1123.94 95.162C1123.95 93.9175 1124.1 92.2537 1126.57 92.5185" stroke="white" stroke-width="1.4" stroke-linecap="round"/>
</g>
<defs>
<filter id="filter0_i_726_147" x="988.625" y="348.359" width="41.6084" height="64.4092" filterUnits="userSpaceOnUse" color-interpolation-filters="sRGB">
<feFlood flood-opacity="0" result="BackgroundImageFix"/>
<feBlend mode="normal" in="SourceGraphic" in2="BackgroundImageFix" result="shape"/>
<feColorMatrix in="SourceAlpha" type="matrix" values="0 0 0 0 0 0 0 0 0 0 0 0 0 0 0 0 0 0 127 0" result="hardAlpha"/>
<feOffset dx="-1.21927" dy="5.28351"/>
<feComposite in2="hardAlpha" operator="arithmetic" k2="-1" k3="1"/>
<feColorMatrix type="matrix" values="0 0 0 0 1 0 0 0 0 1 0 0 0 0 1 0 0 0 0.25 0"/>
<feBlend mode="normal" in2="shape" result="effect1_innerShadow_726_147"/>
</filter>
<filter id="filter1_i_726_147" x="931.203" y="373.453" width="29.958" height="46.0066" filterUnits="userSpaceOnUse" color-interpolation-filters="sRGB">
<feFlood flood-opacity="0" result="BackgroundImageFix"/>
<feBlend mode="normal" in="SourceGraphic" in2="BackgroundImageFix" result="shape"/>
<feColorMatrix in="SourceAlpha" type="matrix" values="0 0 0 0 0 0 0 0 0 0 0 0 0 0 0 0 0 0 127 0" result="hardAlpha"/>
<feOffset dx="-1.21927" dy="5.28351"/>
<feComposite in2="hardAlpha" operator="arithmetic" k2="-1" k3="1"/>
<feColorMatrix type="matrix" values="0 0 0 0 1 0 0 0 0 1 0 0 0 0 1 0 0 0 0.25 0"/>
<feBlend mode="normal" in2="shape" result="effect1_innerShadow_726_147"/>
</filter>
<filter id="filter2_i_726_147" x="441.885" y="316.572" width="25.7974" height="40.9877" filterUnits="userSpaceOnUse" color-interpolation-filters="sRGB">
<feFlood flood-opacity="0" result="BackgroundImageFix"/>
<feBlend mode="normal" in="SourceGraphic" in2="BackgroundImageFix" result="shape"/>
<feColorMatrix in="SourceAlpha" type="matrix" values="0 0 0 0 0 0 0 0 0 0 0 0 0 0 0 0 0 0 127 0" result="hardAlpha"/>
<feOffset dx="-0.812848" dy="3.25139"/>
<feComposite in2="hardAlpha" operator="arithmetic" k2="-1" k3="1"/>
<feColorMatrix type="matrix" values="0 0 0 0 1 0 0 0 0 1 0 0 0 0 1 0 0 0 0.25 0"/>
<feBlend mode="normal" in2="shape" result="effect1_innerShadow_726_147"/>
</filter>
<filter id="filter3_i_726_147" x="723.156" y="414.441" width="25.7974" height="40.9877" filterUnits="userSpaceOnUse" color-interpolation-filters="sRGB">
<feFlood flood-opacity="0" result="BackgroundImageFix"/>
<feBlend mode="normal" in="SourceGraphic" in2="BackgroundImageFix" result="shape"/>
<feColorMatrix in="SourceAlpha" type="matrix" values="0 0 0 0 0 0 0 0 0 0 0 0 0 0 0 0 0 0 127 0" result="hardAlpha"/>
<feOffset dx="-0.812848" dy="3.25139"/>
<feComposite in2="hardAlpha" operator="arithmetic" k2="-1" k3="1"/>
<feColorMatrix type="matrix" values="0 0 0 0 1 0 0 0 0 1 0 0 0 0 1 0 0 0 0.25 0"/>
<feBlend mode="normal" in2="shape" result="effect1_innerShadow_726_147"/>
</filter>
<filter id="filter4_i_726_147" x="431.903" y="329.957" width="19.9722" height="30.9499" filterUnits="userSpaceOnUse" color-interpolation-filters="sRGB">
<feFlood flood-opacity="0" result="BackgroundImageFix"/>
<feBlend mode="normal" in="SourceGraphic" in2="BackgroundImageFix" result="shape"/>
<feColorMatrix in="SourceAlpha" type="matrix" values="0 0 0 0 0 0 0 0 0 0 0 0 0 0 0 0 0 0 127 0" result="hardAlpha"/>
<feOffset dx="-0.812848" dy="3.25139"/>
<feComposite in2="hardAlpha" operator="arithmetic" k2="-1" k3="1"/>
<feColorMatrix type="matrix" values="0 0 0 0 1 0 0 0 0 1 0 0 0 0 1 0 0 0 0.25 0"/>
<feBlend mode="normal" in2="shape" result="effect1_innerShadow_726_147"/>
</filter>
<filter id="filter5_i_726_147" x="713.17" y="427.824" width="19.9722" height="30.9499" filterUnits="userSpaceOnUse" color-interpolation-filters="sRGB">
<feFlood flood-opacity="0" result="BackgroundImageFix"/>
<feBlend mode="normal" in="SourceGraphic" in2="BackgroundImageFix" result="shape"/>
<feColorMatrix in="SourceAlpha" type="matrix" values="0 0 0 0 0 0 0 0 0 0 0 0 0 0 0 0 0 0 127 0" result="hardAlpha"/>
<feOffset dx="-0.812848" dy="3.25139"/>
<feComposite in2="hardAlpha" operator="arithmetic" k2="-1" k3="1"/>
<feColorMatrix type="matrix" values="0 0 0 0 1 0 0 0 0 1 0 0 0 0 1 0 0 0 0.25 0"/>
<feBlend mode="normal" in2="shape" result="effect1_innerShadow_726_147"/>
</filter>
<filter id="filter6_i_726_147" x="457.693" y="329.12" width="15.8113" height="25.931" filterUnits="userSpaceOnUse" color-interpolation-filters="sRGB">
<feFlood flood-opacity="0" result="BackgroundImageFix"/>
<feBlend mode="normal" in="SourceGraphic" in2="BackgroundImageFix" result="shape"/>
<feColorMatrix in="SourceAlpha" type="matrix" values="0 0 0 0 0 0 0 0 0 0 0 0 0 0 0 0 0 0 127 0" result="hardAlpha"/>
<feOffset dx="-0.812848" dy="3.25139"/>
<feComposite in2="hardAlpha" operator="arithmetic" k2="-1" k3="1"/>
<feColorMatrix type="matrix" values="0 0 0 0 1 0 0 0 0 1 0 0 0 0 1 0 0 0 0.25 0"/>
<feBlend mode="normal" in2="shape" result="effect1_innerShadow_726_147"/>
</filter>
<filter id="filter7_i_726_147" x="738.972" y="426.987" width="15.8113" height="25.931" filterUnits="userSpaceOnUse" color-interpolation-filters="sRGB">
<feFlood flood-opacity="0" result="BackgroundImageFix"/>
<feBlend mode="normal" in="SourceGraphic" in2="BackgroundImageFix" result="shape"/>
<feColorMatrix in="SourceAlpha" type="matrix" values="0 0 0 0 0 0 0 0 0 0 0 0 0 0 0 0 0 0 127 0" result="hardAlpha"/>
<feOffset dx="-0.812848" dy="3.25139"/>
<feComposite in2="hardAlpha" operator="arithmetic" k2="-1" k3="1"/>
<feColorMatrix type="matrix" values="0 0 0 0 1 0 0 0 0 1 0 0 0 0 1 0 0 0 0.25 0"/>
<feBlend mode="normal" in2="shape" result="effect1_innerShadow_726_147"/>
</filter>
<filter id="filter8_i_726_147" x="965.312" y="340.83" width="50.7625" height="78.6295" filterUnits="userSpaceOnUse" color-interpolation-filters="sRGB">
<feFlood flood-opacity="0" result="BackgroundImageFix"/>
<feBlend mode="normal" in="SourceGraphic" in2="BackgroundImageFix" result="shape"/>
<feColorMatrix in="SourceAlpha" type="matrix" values="0 0 0 0 0 0 0 0 0 0 0 0 0 0 0 0 0 0 127 0" result="hardAlpha"/>
<feOffset dx="-1.21927" dy="5.28351"/>
<feComposite in2="hardAlpha" operator="arithmetic" k2="-1" k3="1"/>
<feColorMatrix type="matrix" values="0 0 0 0 1 0 0 0 0 1 0 0 0 0 1 0 0 0 0.25 0"/>
<feBlend mode="normal" in2="shape" result="effect1_innerShadow_726_147"/>
</filter>
<filter id="filter9_i_726_147" x="1085.15" y="288.133" width="50.7625" height="78.6295" filterUnits="userSpaceOnUse" color-interpolation-filters="sRGB">
<feFlood flood-opacity="0" result="BackgroundImageFix"/>
<feBlend mode="normal" in="SourceGraphic" in2="BackgroundImageFix" result="shape"/>
<feColorMatrix in="SourceAlpha" type="matrix" values="0 0 0 0 0 0 0 0 0 0 0 0 0 0 0 0 0 0 127 0" result="hardAlpha"/>
<feOffset dx="-1.21927" dy="5.28351"/>
<feComposite in2="hardAlpha" operator="arithmetic" k2="-1" k3="1"/>
<feColorMatrix type="matrix" values="0 0 0 0 1 0 0 0 0 1 0 0 0 0 1 0 0 0 0.25 0"/>
<feBlend mode="normal" in2="shape" result="effect1_innerShadow_726_147"/>
</filter>
<filter id="filter10_i_726_147" x="52.4355" y="253" width="34.9512" height="56.0444" filterUnits="userSpaceOnUse" color-interpolation-filters="sRGB">
<feFlood flood-opacity="0" result="BackgroundImageFix"/>
<feBlend mode="normal" in="SourceGraphic" in2="BackgroundImageFix" result="shape"/>
<feColorMatrix in="SourceAlpha" type="matrix" values="0 0 0 0 0 0 0 0 0 0 0 0 0 0 0 0 0 0 127 0" result="hardAlpha"/>
<feOffset dx="-0.812848" dy="3.25139"/>
<feComposite in2="hardAlpha" operator="arithmetic" k2="-1" k3="1"/>
<feColorMatrix type="matrix" values="0 0 0 0 1 0 0 0 0 1 0 0 0 0 1 0 0 0 0.25 0"/>
<feBlend mode="normal" in2="shape" result="effect1_innerShadow_726_147"/>
</filter>
<filter id="filter11_i_726_147" x="39.1138" y="271.402" width="26.6294" height="42.6607" filterUnits="userSpaceOnUse" color-interpolation-filters="sRGB">
<feFlood flood-opacity="0" result="BackgroundImageFix"/>
<feBlend mode="normal" in="SourceGraphic" in2="BackgroundImageFix" result="shape"/>
<feColorMatrix in="SourceAlpha" type="matrix" values="0 0 0 0 0 0 0 0 0 0 0 0 0 0 0 0 0 0 127 0" result="hardAlpha"/>
<feOffset dx="-0.812848" dy="3.25139"/>
<feComposite in2="hardAlpha" operator="arithmetic" k2="-1" k3="1"/>
<feColorMatrix type="matrix" values="0 0 0 0 1 0 0 0 0 1 0 0 0 0 1 0 0 0 0.25 0"/>
<feBlend mode="normal" in2="shape" result="effect1_innerShadow_726_147"/>
</filter>
<filter id="filter12_i_726_147" x="74.062" y="270.566" width="21.6365" height="35.1323" filterUnits="userSpaceOnUse" color-interpolation-filters="sRGB">
<feFlood flood-opacity="0" result="BackgroundImageFix"/>
<feBlend mode="normal" in="SourceGraphic" in2="BackgroundImageFix" result="shape"/>
<feColorMatrix in="SourceAlpha" type="matrix" values="0 0 0 0 0 0 0 0 0 0 0 0 0 0 0 0 0 0 127 0" result="hardAlpha"/>
<feOffset dx="-0.812848" dy="3.25139"/>
<feComposite in2="hardAlpha" operator="arithmetic" k2="-1" k3="1"/>
<feColorMatrix type="matrix" values="0 0 0 0 1 0 0 0 0 1 0 0 0 0 1 0 0 0 0.25 0"/>
<feBlend mode="normal" in2="shape" result="effect1_innerShadow_726_147"/>
</filter>
<filter id="filter13_i_726_147" x="-0.406424" y="288.133" width="899.728" height="341.692" filterUnits="userSpaceOnUse" color-interpolation-filters="sRGB">
<feFlood flood-opacity="0" result="BackgroundImageFix"/>
<feBlend mode="normal" in="SourceGraphic" in2="BackgroundImageFix" result="shape"/>
<feColorMatrix in="SourceAlpha" type="matrix" values="0 0 0 0 0 0 0 0 0 0 0 0 0 0 0 0 0 0 127 0" result="hardAlpha"/>
<feOffset dx="-3.25139" dy="5.28351"/>
<feGaussianBlur stdDeviation="0.203212"/>
<feComposite in2="hardAlpha" operator="arithmetic" k2="-1" k3="1"/>
<feColorMatrix type="matrix" values="0 0 0 0 0.945833 0 0 0 0 0.28375 0 0 0 0 0.541227 0 0 0 1 0"/>
<feBlend mode="normal" in2="shape" result="effect1_innerShadow_726_147"/>
</filter>
<filter id="filter14_i_726_147" x="485.155" y="338.321" width="715.24" height="291.503" filterUnits="userSpaceOnUse" color-interpolation-filters="sRGB">
<feFlood flood-opacity="0" result="BackgroundImageFix"/>
<feBlend mode="normal" in="SourceGraphic" in2="BackgroundImageFix" result="shape"/>
<feColorMatrix in="SourceAlpha" type="matrix" values="0 0 0 0 0 0 0 0 0 0 0 0 0 0 0 0 0 0 127 0" result="hardAlpha"/>
<feOffset dx="3.65782" dy="4.06424"/>
<feGaussianBlur stdDeviation="0.203212"/>
<feComposite in2="hardAlpha" operator="arithmetic" k2="-1" k3="1"/>
<feColorMatrix type="matrix" values="0 0 0 0 0.941667 0 0 0 0 0.168715 0 0 0 0 0.469519 0 0 0 1 0"/>
<feBlend mode="normal" in2="shape" result="effect1_innerShadow_726_147"/>
</filter>
<filter id="filter15_i_726_147" x="887.922" y="427.824" width="66.5737" height="109.161" filterUnits="userSpaceOnUse" color-interpolation-filters="sRGB">
<feFlood flood-opacity="0" result="BackgroundImageFix"/>
<feBlend mode="normal" in="SourceGraphic" in2="BackgroundImageFix" result="shape"/>
<feColorMatrix in="SourceAlpha" type="matrix" values="0 0 0 0 0 0 0 0 0 0 0 0 0 0 0 0 0 0 127 0" result="hardAlpha"/>
<feOffset dx="-1.21927" dy="5.28351"/>
<feComposite in2="hardAlpha" operator="arithmetic" k2="-1" k3="1"/>
<feColorMatrix type="matrix" values="0 0 0 0 0.4 0 0 0 0 0.4 0 0 0 0 0.4 0 0 0 0.25 0"/>
<feBlend mode="normal" in2="shape" result="effect1_innerShadow_726_147"/>
</filter>
<filter id="filter16_i_726_147" x="1082.65" y="416.114" width="66.5737" height="104.142" filterUnits="userSpaceOnUse" color-interpolation-filters="sRGB">
<feFlood flood-opacity="0" result="BackgroundImageFix"/>
<feBlend mode="normal" in="SourceGraphic" in2="BackgroundImageFix" result="shape"/>
<feColorMatrix in="SourceAlpha" type="matrix" values="0 0 0 0 0 0 0 0 0 0 0 0 0 0 0 0 0 0 127 0" result="hardAlpha"/>
<feOffset dx="-1.21927" dy="5.28351"/>
<feComposite in2="hardAlpha" operator="arithmetic" k2="-1" k3="1"/>
<feColorMatrix type="matrix" values="0 0 0 0 0.4 0 0 0 0 0.4 0 0 0 0 0.4 0 0 0 0.25 0"/>
<feBlend mode="normal" in2="shape" result="effect1_innerShadow_726_147"/>
</filter>
<filter id="filter17_i_726_147" x="788.06" y="480.523" width="66.5737" height="104.142" filterUnits="userSpaceOnUse" color-interpolation-filters="sRGB">
<feFlood flood-opacity="0" result="BackgroundImageFix"/>
<feBlend mode="normal" in="SourceGraphic" in2="BackgroundImageFix" result="shape"/>
<feColorMatrix in="SourceAlpha" type="matrix" values="0 0 0 0 0 0 0 0 0 0 0 0 0 0 0 0 0 0 127 0" result="hardAlpha"/>
<feOffset dx="-1.21927" dy="5.28351"/>
<feComposite in2="hardAlpha" operator="arithmetic" k2="-1" k3="1"/>
<feColorMatrix type="matrix" values="0 0 0 0 0.4 0 0 0 0 0.4 0 0 0 0 0.4 0 0 0 0.25 0"/>
<feBlend mode="normal" in2="shape" result="effect1_innerShadow_726_147"/>
</filter>
<filter id="filter18_i_726_147" x="33.292" y="415.278" width="66.5737" height="104.142" filterUnits="userSpaceOnUse" color-interpolation-filters="sRGB">
<feFlood flood-opacity="0" result="BackgroundImageFix"/>
<feBlend mode="normal" in="SourceGraphic" in2="BackgroundImageFix" result="shape"/>
<feColorMatrix in="SourceAlpha" type="matrix" values="0 0 0 0 0 0 0 0 0 0 0 0 0 0 0 0 0 0 127 0" result="hardAlpha"/>
<feOffset dx="-1.21927" dy="5.28351"/>
<feComposite in2="hardAlpha" operator="arithmetic" k2="-1" k3="1"/>
<feColorMatrix type="matrix" values="0 0 0 0 0.4 0 0 0 0 0.4 0 0 0 0 0.4 0 0 0 0.25 0"/>
<feBlend mode="normal" in2="shape" result="effect1_innerShadow_726_147"/>
</filter>
<filter id="filter19_i_726_147" x="184.745" y="424.479" width="47.4336" height="76.12" filterUnits="userSpaceOnUse" color-interpolation-filters="sRGB">
<feFlood flood-opacity="0" result="BackgroundImageFix"/>
<feBlend mode="normal" in="SourceGraphic" in2="BackgroundImageFix" result="shape"/>
<feColorMatrix in="SourceAlpha" type="matrix" values="0 0 0 0 0 0 0 0 0 0 0 0 0 0 0 0 0 0 127 0" result="hardAlpha"/>
<feOffset dx="-1.21927" dy="5.28351"/>
<feComposite in2="hardAlpha" operator="arithmetic" k2="-1" k3="1"/>
<feColorMatrix type="matrix" values="0 0 0 0 0.4 0 0 0 0 0.4 0 0 0 0 0.4 0 0 0 0.25 0"/>
<feBlend mode="normal" in2="shape" result="effect1_innerShadow_726_147"/>
</filter>
<filter id="filter20_i_726_147" x="152.285" y="437.027" width="47.4336" height="76.12" filterUnits="userSpaceOnUse" color-interpolation-filters="sRGB">
<feFlood flood-opacity="0" result="BackgroundImageFix"/>
<feBlend mode="normal" in="SourceGraphic" in2="BackgroundImageFix" result="shape"/>
<feColorMatrix in="SourceAlpha" type="matrix" values="0 0 0 0 0 0 0 0 0 0 0 0 0 0 0 0 0 0 127 0" result="hardAlpha"/>
<feOffset dx="-1.21927" dy="5.28351"/>
<feComposite in2="hardAlpha" operator="arithmetic" k2="-1" k3="1"/>
<feColorMatrix type="matrix" values="0 0 0 0 0.4 0 0 0 0 0.4 0 0 0 0 0.4 0 0 0 0.25 0"/>
<feBlend mode="normal" in2="shape" result="effect1_innerShadow_726_147"/>
</filter>
<clipPath id="clip0_726_147">
<rect width="1200" height="630" fill="white"/>
</clipPath>
</defs>
</svg>
