<svg width="80" height="80" viewBox="0 0 80 80" fill="none" xmlns="http://www.w3.org/2000/svg">
<path d="M50 15H30L22.5938 3.89062C21.4844 2.21875 22.6719 0 24.6719 0H55.3281C57.3281 0 58.5156 2.21875 57.4062 3.89062L50 15ZM30 20H50C50.5938 20.3906 51.2656 20.8281 52.0312 21.3125C60.8906 26.9844 80 39.2031 80 65C80 73.2812 73.2812 80 65 80H15C6.71875 80 0 73.2812 0 65C0 39.2031 19.1094 26.9844 27.9688 21.3125C28.7188 20.8281 29.4062 20.3906 30 20ZM43.125 33.75C43.125 32.0312 41.7188 30.625 40 30.625C38.2812 30.625 36.875 32.0312 36.875 33.75V35.9375C35.6875 36.2031 34.5 36.625 33.4062 37.2656C31.2344 38.5625 29.3594 40.8281 29.375 44.125C29.3906 47.2969 31.25 49.2969 33.2344 50.4844C34.9531 51.5156 37.0938 52.1719 38.7969 52.6719L39.0625 52.75C41.0312 53.3438 42.4688 53.8125 43.4375 54.4219C44.2344 54.9219 44.3438 55.2656 44.3594 55.7031C44.375 56.4844 44.0781 56.9531 43.4375 57.3438C42.6562 57.8281 41.4219 58.125 40.0938 58.0781C38.3594 58.0156 36.7344 57.4688 34.6094 56.75C34.25 56.625 33.875 56.5 33.4844 56.375C31.8438 55.8281 30.0781 56.7188 29.5312 58.3438C28.9844 59.9688 29.875 61.75 31.5 62.2969C31.7969 62.3906 32.125 62.5 32.4531 62.625C33.75 63.0781 35.25 63.5938 36.8594 63.9375V66.2188C36.8594 67.9375 38.2656 69.3438 39.9844 69.3438C41.7031 69.3438 43.1094 67.9375 43.1094 66.2188V64.0625C44.3594 63.7969 45.6094 63.3594 46.7344 62.6562C48.9688 61.2656 50.6562 58.8906 50.6094 55.625C50.5625 52.4531 48.7812 50.4062 46.7656 49.125C44.9688 48 42.7188 47.3125 40.9688 46.7812L40.8594 46.75C38.8594 46.1406 37.4375 45.7031 36.4375 45.1094C35.625 44.625 35.6094 44.3438 35.6094 44.0625C35.6094 43.4844 35.8281 43.0469 36.5781 42.6094C37.4219 42.1094 38.7031 41.8125 39.9375 41.8281C41.4375 41.8438 43.0938 42.1719 44.8125 42.6406C46.4844 43.0781 48.1875 42.0938 48.6406 40.4219C49.0938 38.75 48.0938 37.0469 46.4219 36.5938C45.4062 36.3281 44.2812 36.0625 43.125 35.8594V33.6875V33.75Z" fill="#D7D7D7"/>
</svg>
