<svg width="80" height="80" viewBox="0 0 80 80" fill="none" xmlns="http://www.w3.org/2000/svg">
<path d="M65.8125 20H59.1406V23.3281C59.1406 27 56.1562 30 52.4687 30C48.7969 30 45.7969 27.0156 45.7969 23.3281V20H32.4688V23.3281C32.4688 27 29.4844 30 25.7969 30C22.125 30 19.125 27.0156 19.125 23.3281V20H12.4844C12.4844 53.3281 9.15625 80 9.15625 80H69.1562C69.1406 80 65.8125 53.3281 65.8125 20ZM25.8125 26.6719C27.6562 26.6719 29.1406 25.1875 29.1406 23.3437V16.6719C29.1406 11.1406 33.6094 6.67188 39.1406 6.67188C44.6719 6.67188 49.1406 11.1406 49.1406 16.6719V23.3437C49.1406 25.1875 50.625 26.6719 52.4687 26.6719C54.3125 26.6719 55.7969 25.1875 55.7969 23.3437V16.6719C55.8125 7.46875 48.3437 0 39.1406 0C29.9375 0 22.4688 7.46875 22.4688 16.6719V23.3437C22.4844 25.1719 23.9687 26.6719 25.8125 26.6719Z" fill="#D7D7D7"/>
</svg>
