<svg width="80" height="80" viewBox="0 0 80 80" fill="none" xmlns="http://www.w3.org/2000/svg">
<rect width="80" height="80" rx="6" fill="#D2DBFD"/>
<path d="M22.8375 45.4941C20.7771 45.4941 19.1031 47.1784 19.1031 49.2481C19.1015 50.2405 19.4938 51.193 20.1941 51.8963C20.8943 52.5996 21.845 52.9962 22.8375 52.999C23.8309 52.997 24.7828 52.6007 25.4841 51.8972C26.1853 51.1936 26.5785 50.2404 26.5771 49.247C26.5779 48.2538 26.1846 47.3008 25.4835 46.5971C24.7824 45.8935 23.8308 45.4968 22.8375 45.4941ZM22.8375 51.1824C22.3411 51.1802 21.8659 50.9812 21.516 50.6292C21.166 50.2771 20.97 49.8007 20.9708 49.3043C20.9706 48.8083 21.1668 48.3324 21.5167 47.9808C21.8666 47.6292 22.3415 47.4306 22.8375 47.4284C23.3344 47.4292 23.8107 47.6272 24.1617 47.979C24.5127 48.3307 24.7097 48.8074 24.7094 49.3043C24.7098 49.5505 24.6617 49.7944 24.5678 50.0221C24.474 50.2497 24.3362 50.4566 24.1624 50.631C23.9886 50.8054 23.7821 50.9438 23.5548 51.0385C23.3275 51.1331 23.0837 51.182 22.8375 51.1824ZM55.6948 45.4941C53.6313 45.4941 51.9583 47.1784 51.9583 49.2481C51.9564 50.241 52.3489 51.1941 53.0496 51.8977C53.7503 52.6013 54.7018 52.9978 55.6948 53C57.7573 53 59.4344 51.3199 59.4344 49.2481C59.4355 48.2546 59.0423 47.3014 58.3412 46.5975C57.6401 45.8937 56.6883 45.4968 55.6948 45.4941ZM55.6948 51.1824C55.1981 51.1807 54.7223 50.982 54.3719 50.6299C54.0215 50.2778 53.8252 49.801 53.826 49.3043C53.8258 48.808 54.0223 48.3317 54.3726 47.9801C54.723 47.6284 55.1984 47.43 55.6948 47.4284C56.7281 47.4284 57.5667 48.271 57.5667 49.3043C57.5671 49.5505 57.519 49.7944 57.4251 50.0221C57.3313 50.2497 57.1935 50.4566 57.0197 50.631C56.8459 50.8054 56.6394 50.9438 56.4121 51.0385C56.1848 51.1331 55.941 51.182 55.6948 51.1824ZM63.9656 28H31.1052C30.8304 28.0008 30.5672 28.1106 30.3732 28.3053C30.1793 28.5 30.0706 28.7637 30.0708 29.0385V38.4569H28.001V32.6748C28.0013 32.5386 27.9747 32.4037 27.9228 32.2778C27.8709 32.1519 27.7947 32.0374 27.6986 31.941C27.6024 31.8445 27.4882 31.768 27.3624 31.7157C27.2367 31.6634 27.1018 31.6364 26.9656 31.6363H19.9156C18.6865 31.6363 17.5885 32.5446 17.3917 33.8445V33.7768L16.2917 40.013L16.2938 40.0349C15.9313 40.0972 15.6025 40.2857 15.3657 40.5671C15.1289 40.8485 14.9994 41.2046 15 41.5724L15.0344 41.9057L15 41.8963L16.5521 48.9116H18.1688V48.8481C18.1688 46.3336 20.226 44.2972 22.7625 44.2972C25.2969 44.2972 27.3552 46.3336 27.3552 48.8481V48.9116H51.0281V48.8481C51.0281 46.3336 53.0865 44.2972 55.6188 44.2972C58.1552 44.2972 60.2135 46.3336 60.2135 48.8481L60.2094 48.9116H65V29.0385C65.0003 28.9024 64.9737 28.7676 64.9219 28.6417C64.8701 28.5159 64.794 28.4015 64.6979 28.305C64.6019 28.2086 64.4877 28.132 64.3621 28.0797C64.2365 28.0274 64.1017 28.0003 63.9656 28ZM24.3781 33.3237V38.4569H18.1698L18.9458 34.1018C19.0104 33.581 19.4635 33.1967 19.9156 33.1967H24.3781V33.3237Z" fill="#4268F1"/>
</svg>
