<svg width="80" height="80" viewBox="0 0 80 80" fill="none" xmlns="http://www.w3.org/2000/svg">
<rect width="80" height="80" rx="6" fill="#FFCCD9"/>
<path d="M30.5263 38.5L39.2105 25L47.8947 38.5H30.5263ZM47.8947 55C45.921 55 44.2437 54.344 42.8626 53.032C41.4816 51.72 40.7905 50.126 40.7895 48.25C40.7884 46.374 41.4795 44.7805 42.8626 43.4695C44.2458 42.1585 45.9231 41.502 47.8947 41.5C49.8663 41.498 51.5442 42.1545 52.9284 43.4695C54.3126 44.7845 55.0031 46.378 55 48.25C54.9968 50.122 54.3063 51.716 52.9284 53.032C51.5505 54.348 49.8726 55.004 47.8947 55ZM25 54.25V42.25H37.6316V54.25H25Z" fill="#FF005C"/>
</svg>
