<svg width="100" height="100" viewBox="0 0 100 100" fill="none" xmlns="http://www.w3.org/2000/svg">
<path d="M6.25 26.5625C6.25 22.8329 7.73158 19.256 10.3688 16.6188C13.006 13.9816 16.5829 12.5 20.3125 12.5H79.6875C83.4171 12.5 86.994 13.9816 89.6312 16.6188C92.2684 19.256 93.75 22.8329 93.75 26.5625V54.1969C91.9669 51.9882 89.8597 50.0622 87.5 48.4844V26.5625C87.5 24.4905 86.6769 22.5034 85.2118 21.0382C83.7466 19.5731 81.7595 18.75 79.6875 18.75H20.3125C18.2405 18.75 16.2534 19.5731 14.7882 21.0382C13.3231 22.5034 12.5 24.4905 12.5 26.5625V73.4375C12.5 75.5095 13.3231 77.4966 14.7882 78.9618C16.2534 80.4269 18.2405 81.25 20.3125 81.25H45.35C46.1375 83.475 47.1938 85.5719 48.4844 87.5H20.3125C16.5829 87.5 13.006 86.0184 10.3688 83.3812C7.73158 80.744 6.25 77.1671 6.25 73.4375V26.5625ZM71.875 95.3125C78.091 95.3125 84.0524 92.8432 88.4478 88.4478C92.8432 84.0524 95.3125 78.091 95.3125 71.875C95.3125 65.659 92.8432 59.6976 88.4478 55.3022C84.0524 50.9068 78.091 48.4375 71.875 48.4375C65.659 48.4375 59.6976 50.9068 55.3022 55.3022C50.9068 59.6976 48.4375 65.659 48.4375 71.875C48.4375 78.091 50.9068 84.0524 55.3022 88.4478C59.6976 92.8432 65.659 95.3125 71.875 95.3125ZM75 57.0312V68.75H86.7188C87.3404 68.75 87.9365 68.9969 88.376 69.4365C88.8156 69.876 89.0625 70.4721 89.0625 71.0938C89.0625 71.7154 88.8156 72.3115 88.376 72.751C87.9365 73.1906 87.3404 73.4375 86.7188 73.4375H75V85.1562C75 85.7779 74.7531 86.374 74.3135 86.8135C73.874 87.2531 73.2779 87.5 72.6562 87.5C72.0346 87.5 71.4385 87.2531 70.999 86.8135C70.5594 86.374 70.3125 85.7779 70.3125 85.1562V73.4375H58.5938C57.9721 73.4375 57.376 73.1906 56.9365 72.751C56.4969 72.3115 56.25 71.7154 56.25 71.0938C56.25 70.4721 56.4969 69.876 56.9365 69.4365C57.376 68.9969 57.9721 68.75 58.5938 68.75H70.3125V57.0312C70.3125 56.4096 70.5594 55.8135 70.999 55.374C71.4385 54.9344 72.0346 54.6875 72.6562 54.6875C73.2779 54.6875 73.874 54.9344 74.3135 55.374C74.7531 55.8135 75 56.4096 75 57.0312Z" fill="#594ED1"/>
</svg>
