<svg width="28" height="28" viewBox="0 0 28 28" fill="none" xmlns="http://www.w3.org/2000/svg">
<rect x="0.25" y="0.25" width="27.5" height="27.5" rx="2.75" fill="#FFCCD9"/>
<rect x="0.25" y="0.25" width="27.5" height="27.5" rx="2.75" stroke="#C6C6C6" stroke-width="0.5"/>
<path d="M6.00645 16.9055C6.03434 16.6471 6.22631 16.4391 6.61025 16.0223L7.45607 15.1C7.6628 14.844 7.80965 14.4 7.80965 14C7.80965 13.6 7.6628 13.1552 7.45689 12.9L6.60943 11.9776C6.22549 11.5616 6.03352 11.3528 6.00563 11.0944C5.97774 10.836 6.12048 10.5928 6.40762 10.1072L6.81289 9.42158C7.11889 8.90319 7.2723 8.64399 7.53318 8.54159C7.79324 8.43759 8.08776 8.51919 8.67762 8.68239L9.67848 8.95679C10.055 9.04158 10.4496 8.99358 10.7926 8.82159L11.069 8.66639C11.3637 8.48211 11.5902 8.21076 11.7155 7.89199L11.9895 7.09439C12.17 6.5664 12.2602 6.3024 12.4743 6.1504C12.6901 6 12.9748 6 13.5441 6H14.4589C15.0282 6 15.3137 6 15.5278 6.1512C15.7419 6.3024 15.8322 6.5664 16.0118 7.09439L16.2867 7.89199C16.4119 8.21076 16.6384 8.48211 16.9331 8.66639L17.2096 8.82159C17.5525 8.99358 17.9479 9.04158 18.3237 8.95759L19.3245 8.68239C19.9144 8.51919 20.2089 8.43759 20.469 8.54079C20.7299 8.64479 20.8833 8.90319 21.1893 9.42158L21.5937 10.1072C21.8809 10.5928 22.0244 10.8352 21.9965 11.0944C21.9686 11.3536 21.7767 11.5608 21.3927 11.9776L20.5469 12.9C20.3402 13.1552 20.1933 13.6 20.1933 14C20.1933 14.4 20.3402 14.8448 20.5461 15.1L21.3927 16.0223C21.7767 16.4383 21.9686 16.6471 21.9965 16.9055C22.0244 17.1639 21.8817 17.4071 21.5945 17.8927L21.1893 18.5783C20.8833 19.0967 20.7299 19.3559 20.469 19.4583C20.2089 19.5623 19.9144 19.4807 19.3245 19.3175L18.3237 19.0431C17.9473 18.9589 17.5525 19.0067 17.2088 19.1783L16.9331 19.3335C16.6378 19.5175 16.4114 19.7895 16.2867 20.1079L16.0127 20.9055C15.8322 21.4335 15.7419 21.6975 15.5278 21.8495C15.3137 21.9999 15.0282 21.9999 14.4589 21.9999H13.5441C12.9748 21.9999 12.6901 21.9999 12.4752 21.8487C12.261 21.6975 12.1708 21.4343 11.9911 20.9063" stroke="#FF005C" stroke-width="1.5" stroke-linecap="round" stroke-linejoin="round"/>
<path d="M6.40109 19.4239C7.28711 18.5599 10.2996 15.6511 10.5949 15.3151C10.9075 14.96 10.654 14.48 10.8049 12.992C10.8779 12.272 11.0363 11.7328 11.4907 11.3312C12.0322 10.832 12.4752 10.832 14.0011 10.7984C15.3301 10.832 15.4877 10.688 15.6255 11.024C15.7239 11.264 15.4286 11.408 15.0742 11.792C14.2866 12.56 13.8239 12.944 13.7796 13.184C13.4597 14.24 14.7198 14.864 15.4089 14.192C15.6698 13.9376 16.8757 12.752 16.9939 12.656C17.0825 12.5792 17.295 12.5824 17.3975 12.704C17.4861 12.7888 17.4959 12.8 17.4861 13.184C17.4779 13.5392 17.4812 14.0496 17.4828 14.576C17.4836 15.2575 17.4467 16.0159 17.1514 16.3999C16.5607 17.2639 15.5763 17.3119 14.6902 17.3503C13.8534 17.3983 13.1643 17.3119 12.9477 17.4655C12.7705 17.5519 11.8353 18.5119 10.7032 19.6159L8.68504 21.5839C7.01146 22.8799 5.17052 20.8639 6.40109 19.4239Z" stroke="#FF005C" stroke-width="1.5" stroke-linecap="round" stroke-linejoin="round"/>
</svg>
