<svg width="28" height="28" viewBox="0 0 28 28" fill="none" xmlns="http://www.w3.org/2000/svg">
<rect x="0.25" y="0.25" width="27.5" height="27.5" rx="2.75" fill="#D6EDFD"/>
<rect x="0.25" y="0.25" width="27.5" height="27.5" rx="2.75" stroke="#C6C6C6" stroke-width="0.5"/>
<path d="M7.8 23.6667C7.28667 23.6667 6.84738 23.484 6.48213 23.1188C6.11689 22.7536 5.93396 22.314 5.93333 21.8V11.2767C5.65333 11.1056 5.42778 10.884 5.25667 10.6121C5.08556 10.3402 5 10.0251 5 9.66667V6.86667C5 6.35333 5.18293 5.91404 5.5488 5.5488C5.91467 5.18356 6.35396 5.00062 6.86667 5H21.8C22.3133 5 22.7529 5.18293 23.1188 5.5488C23.4847 5.91467 23.6673 6.35396 23.6667 6.86667V9.66667C23.6667 10.0244 23.5811 10.3396 23.41 10.6121C23.2389 10.8847 23.0133 11.1059 22.7333 11.2757V21.8C22.7333 22.3133 22.5507 22.7529 22.1855 23.1188C21.8202 23.4847 21.3806 23.6673 20.8667 23.6667H7.8ZM6.86667 9.66667H21.8V6.86667H6.86667V9.66667ZM11.5333 16.2H17.1333V14.3333H11.5333V16.2Z" fill="#42B0EF"/>
</svg>
