<svg width="28" height="28" viewBox="0 0 28 28" fill="none" xmlns="http://www.w3.org/2000/svg">
<rect x="0.25" y="0.25" width="27.5" height="27.5" rx="2.75" fill="#E3C6FF"/>
<rect x="0.25" y="0.25" width="27.5" height="27.5" rx="2.75" stroke="#C6C6C6" stroke-width="0.5"/>
<path d="M21.8154 5C20.7765 5 19.9337 7.50693 19.9337 10.6H21.8154C22.7226 10.6 23.1753 10.6 23.4562 10.2873C23.7362 9.97373 23.6877 9.5612 23.5906 8.73707C23.3311 6.55867 22.6348 5 21.8154 5Z" stroke="#8000FF" stroke-width="1.5" stroke-linecap="round" stroke-linejoin="round"/>
<path d="M19.9337 10.6504V20.5363C19.9337 21.9465 19.9337 22.6521 19.5025 22.9303C18.7978 23.3839 17.7086 22.4319 17.1607 22.0865C16.708 21.8009 16.4821 21.6591 16.2311 21.6507C15.9595 21.6413 15.7289 21.7785 15.2398 22.0865L13.4562 23.2112C12.9746 23.5145 12.7347 23.6667 12.4668 23.6667C12.199 23.6667 11.9582 23.5145 11.4775 23.2112L9.69478 22.0865C9.24117 21.8009 9.0153 21.6591 8.76422 21.6507C8.49262 21.6413 8.26208 21.7785 7.773 22.0865C7.22512 22.4319 6.13589 23.3839 5.43028 22.9303C5 22.6521 5 21.9475 5 20.5363V10.6504C5 7.98667 5 6.65573 5.82042 5.82787C6.63991 5 7.9606 5 10.6001 5H21.8004" stroke="#8000FF" stroke-width="1.5" stroke-linecap="round" stroke-linejoin="round"/>
<path d="M12.4669 10.6C11.4356 10.6 10.6002 11.2272 10.6002 12C10.6002 12.7728 11.4356 13.4 12.4669 13.4C13.4983 13.4 14.3336 14.0272 14.3336 14.8C14.3336 15.5728 13.4983 16.2 12.4669 16.2M12.4669 10.6C13.279 10.6 13.9715 10.9892 14.2272 11.5333M12.4669 10.6V9.66666M12.4669 16.2C11.6549 16.2 10.9624 15.8108 10.7066 15.2667M12.4669 16.2V17.1333" stroke="#8000FF" stroke-width="1.5" stroke-linecap="round" stroke-linejoin="round"/>
</svg>
