<?xml version="1.0" encoding="UTF-8"?>
<svg id="Layer_1" data-name="Layer 1" xmlns="http://www.w3.org/2000/svg" viewBox="0 0 800 800">
  <defs>
    <style>
      .cls-1 {
        fill: #02ab48;
      }
    </style>
  </defs>
  <path class="cls-1" d="M185.14,493.76c0-118.66,96.2-214.86,214.86-214.86s214.86,96.2,214.86,214.86c0,27.94-5.34,54.64-15.04,79.13,19.58-33.89,30.78-73.22,30.78-115.17,0-127.36-103.24-230.6-230.6-230.6s-230.6,103.24-230.6,230.6c0,41.95,11.21,81.28,30.78,115.17-9.71-24.49-15.04-51.18-15.04-79.13Z"/>
  <g>
    <g>
      <path class="cls-1" d="M306.52,532.07c-2.28,0-4.44.61-6.46,1.84-1.39-3.21-3.92-4.82-7.6-4.82h-.99c-2.48,0-4.82.78-7,2.33-2.19,1.56-3.53,3.54-4.02,5.96-.5,2.22-.05,4.05,1.34,5.49,1.39,1.44,3.23,2.16,5.51,2.16h1.59l1.14-5.31c-1.29,0-2.19-.25-2.71-.74-.51-.5-.69-1.11-.52-1.84.17-.76.59-1.41,1.27-1.94.68-.53,1.68-.79,3-.79,1.16,0,2.03.47,2.61,1.42.58.94.74,2.06.47,3.35l-1.69,7.85c-.66-.2-1.41-.3-2.23-.3-1.49,0-2.98.38-4.47,1.14l-5.96,3.03c-.89-.1-1.58-.6-2.06-1.49s-.59-1.97-.32-3.23l.74-3.53h-6.31l-.74,3.53c-.6,2.75-.12,5.1,1.42,7.05,1.54,1.95,3.7,2.93,6.48,2.93h1.34l7.6-3.82c.36-.2.74-.3,1.14-.3.63,0,1.13.24,1.49.72.36.48.48,1.02.35,1.61l-.4,1.79h6.26l3.18-14.85c.33-.99.96-1.85,1.89-2.58,1.13-.89,2.32-1.34,3.57-1.34.73,0,1.3.26,1.71.77.41.51.54,1.15.37,1.91-.17.76-.58,1.41-1.24,1.94-.66.53-1.37.8-2.14.8h-1.04l-1.09,5.31h1.04c2.48,0,4.78-.78,6.9-2.33,2.12-1.56,3.41-3.46,3.87-5.71.5-2.25.03-4.15-1.41-5.69-1.44-1.54-3.4-2.31-5.88-2.31Z"/>
      <path class="cls-1" d="M335.52,552.28c-.93,0-1.8.34-2.63,1.02s-1.34,1.48-1.54,2.41c-.2.93-.03,1.72.52,2.38.55.66,1.28.99,2.21.99s1.79-.33,2.58-.99c.8-.66,1.29-1.46,1.49-2.38.2-.93.04-1.73-.47-2.41-.51-.68-1.23-1.02-2.16-1.02Z"/>
      <path class="cls-1" d="M395.21,522.29h-9.29l-.2.94c-4.49-1.85-10.17-1.29-14.1,2.09-2.33-3.45-7.27-3.09-11.07-3.03,0,0-27.46,0-27.46,0-9.93,0-47.64,0-58.2,0h0s-3.03,0-3.03,0l.56-2.56h39.62l1.14-5.31h-45.89s-.03,0-.03,0l-1.66,7.87h-2.98l-1.15,5.31h2.98l-5.41,28.56h6.3l5.42-28.56h1.79,0c2.84,0,48.55,0,49.96,0-5.66,6.78-10.42,26.98,2.55,28.55l1.14-5.31c-5.64-.89-3.43-9.25-2.53-12.82,1.12-4.45,5.16-11.05,9.76-10.42l5.26,7c-5.85,1.68-8.98,7.6-9.53,13.26l16.54,8.29h6.31l5.41-28.55c.67.01,2.34,0,2.98,0,9.71-1.63,7.76,11.48-.65,10.13l-1.14,5.31c3.46.14,6.84-.03,9.78-2.43,1.85,2.51,5.64,2.56,8.64,2.43l1.14-5.31c-6.04,1.14-6.51-5.39-2.73-8.52,3.04-3.03,9.5-1.87,8.34,3.2,0,0-4.42,23.74-4.42,23.74h6.31l5.41-28.55h22.89l-.99,4.82c-14.34-9.7-32.37,17.5-10.13,17.78l1.09-5.31c-11.36.78-1.25-14.68,5.91-7,2.8,2.82-1.28,14.86-1.29,18.27h6.31l5.41-28.55h2.98l1.14-5.31h-29.2ZM346.44,549.76l-10.23-5.57c.02-4.6,6.16-5.27,9.43-6.31l-1.99-4.95-2.43-5.33h9.88l-4.67,22.16Z"/>
    </g>
    <polygon class="cls-1" points="439.74 522.35 500.18 522.35 496.52 536.88 476.66 536.88 473.12 556.19 433.54 556.19 439.74 522.35"/>
    <polygon class="cls-1" points="501.26 522.35 508.48 522.35 504.83 536.88 497.61 536.88 501.26 522.35"/>
    <polygon class="cls-1" points="510.63 522.35 515.25 522.35 511.6 536.88 506.98 536.88 510.63 522.35"/>
    <polygon class="cls-1" points="520.33 522.35 516.67 536.88 514.34 536.88 517.99 522.35 520.33 522.35"/>
    <polygon class="cls-1" points="524.12 522.35 520.47 536.88 519.15 536.88 522.79 522.35 524.12 522.35"/>
    <polygon class="cls-1" points="527.54 522.35 523.9 536.88 523.1 536.88 526.76 522.35 527.54 522.35"/>
    <path class="cls-1" d="M371.33,345.49l-4.77,23.2-95.06,43.78-11.67,56.74,71.7,34.81,7.18.11,34.86-.1,32.56-158.61-34.79.07ZM300.97,421.03c1-1.29,2.77-1.64,4.35-.84.15.08.31.14.58.27-.54-1.73-.35-3.2,1.09-4.27,1.34-1,2.75-.88,4.28.06-.49-1.69-.38-3.16.98-4.25,1.37-1.1,2.82-.94,4.36-.06-.51-2.25,0-3.72,1.49-4.54,1.81-1,4.08-.18,5.2,1.87.92,1.69.31,3.77-1.39,4.69-.97.53-1.99.42-3.16.11.89,1.53,1.04,2.97,0,4.31-1.04,1.36-2.46,1.6-4.22,1.05,1.21,1.79,1.41,3.5-.13,4.99-1.32,1.29-2.88,1.22-4.53.24.07.43.13.72.18,1.01.22,1.44-.44,2.83-1.65,3.5-1.32.73-2.87.6-3.97-.43-1.1-1.02-2.16-2.09-3.2-3.17-1.25-1.31-1.34-3.17-.27-4.54ZM308.82,463.67c-1.72,1.72-3.45,3.43-5.15,5.17-.39.4-.63.36-1-.02-6.22-6.24-12.44-12.46-18.68-18.68-.46-.46-.43-.73.03-1.18,1.71-1.66,3.4-3.34,5.05-5.06.5-.52.77-.44,1.23.03,6.18,6.2,12.37,12.39,18.56,18.58.16.16.3.34.49.56-.19.22-.35.42-.52.6ZM323.6,449.92c-.07.03-.15.03-.23.02-2.23-.24-3.74.87-5.19,2.43-2.66,2.86-5.51,5.56-8.26,8.34-.34.34-.57.43-.95.05-5.69-5.71-11.39-11.41-17.08-17.11-.07-.07-.13-.16-.25-.31.25-.28.49-.57.75-.84,3.13-3.14,6.26-6.28,9.41-9.39.38-.38.49-.7.33-1.23-.51-1.69-.96-3.39-1.43-5.09-.05-.17-.07-.34.02-.62.23.22.46.43.68.65.75.75,1.5,1.5,2.26,2.25,1.23,1.21,2.69,1.65,4.35,1.11,1.69-.55,2.61-1.79,2.85-3.54.02-.18.07-.35.12-.62,1.59.3,3.01,0,4.14-1.18,1.13-1.19,1.36-2.63.96-4.24,3.03-.55,4.47-2.29,4.09-5.39.28-.05.53-.08.78-.13,1.8-.35,2.93-1.41,3.44-3.19.14-.47.42-.93.74-1.3.71-.79,1.48-1.52,2.24-2.27,1.38-1.35,3.21-1.52,4.65-.43,1.38,1.04,1.69,2.84.78,4.54-.05.09-.07.18-.16.39,1.63-.48,3.07-.35,4.16.98,1.09,1.33.99,2.76.09,4.36,1.7-.42,3.17-.3,4.23,1.07,1.05,1.36.91,2.79.03,4.29.21-.03.32-.03.42-.06,1.7-.46,3.26.11,4.06,1.48.82,1.39.6,3.02-.63,4.27-2.15,2.18-4.32,4.33-6.48,6.49-4.53,4.53-9.05,9.06-13.6,13.56-.33.33-.88.44-1.33.65ZM325.32,450.2c5.86-5.87,11.75-11.78,17.7-17.74.23.22.49.45.74.7,4.38,4.38,8.75,8.76,13.14,13.12.37.37.55.61.09,1.06-5.69,5.67-11.36,11.35-17.04,17.03-.09.09-.2.15-.25.19-4.86-4.85-9.65-9.63-14.38-14.36ZM361.52,457.19c-4.99,4.98-9.97,9.97-14.95,14.95-.74.74-.74.73-1.49-.02-1.61-1.61-3.22-3.23-4.83-4.84-.18-.18-.35-.37-.59-.62.2-.23.38-.44.57-.63,6.13-6.14,12.27-12.28,18.41-18.42.73-.73.73-.73,1.43-.03,1.67,1.67,3.33,3.34,5,5.01.16.16.3.34.55.63-1.39,1.35-2.75,2.65-4.08,3.98Z"/>
    <path class="cls-1" d="M516.2,426.12l-21.06-.33,16.07-80.38h-34.77l-5.29,27.92-55.42-.96-10.68,51.93,33.36.62,5.99-29.12,22.05.34-6.83,33.19-59.27,17.78-7.55,36.7,46.92,20.27h39.3l11.41-55.47,21.06.33-11.4,55.15h24.9l11.26-54.77,4.69-22.81-24.76-.38ZM448.47,483.63l-34.4-16.6,40.89-14.93-6.48,31.53Z"/>
  </g>
</svg>