<svg width="219" height="167" viewBox="0 0 219 167" fill="none" xmlns="http://www.w3.org/2000/svg">
<path d="M24.7188 137.109C24.6667 137.057 24.6146 137.005 24.5625 136.953C24.5365 136.901 24.4974 136.849 24.4453 136.797C24.1328 136.484 23.9766 136.159 23.9766 135.82C24.0026 135.456 24.1068 135.143 24.2891 134.883C24.4974 134.596 24.7578 134.388 25.0703 134.258C25.4089 134.102 25.7474 134.089 26.0859 134.219C26.5026 134.167 26.8932 134.271 27.2578 134.531C27.6484 134.766 27.8438 135.156 27.8438 135.703C29.1719 137.292 30.4219 138.854 31.5938 140.391C32.7656 141.927 33.8333 143.555 34.7969 145.273C35.2396 146.055 35.6432 146.862 36.0078 147.695C36.3984 148.503 36.763 149.323 37.1016 150.156C37.1016 149.089 37.1406 148.034 37.2188 146.992C37.3229 145.951 37.4401 144.883 37.5703 143.789C37.8568 141.549 38.1302 139.323 38.3906 137.109C38.6771 134.87 38.8333 132.604 38.8594 130.312C38.8594 129.818 39.0156 129.453 39.3281 129.219C39.6667 128.958 40.0312 128.828 40.4219 128.828C40.8125 128.828 41.1641 128.958 41.4766 129.219C41.8151 129.453 41.9844 129.818 41.9844 130.312C41.9583 132.656 41.7891 134.974 41.4766 137.266C41.1901 139.531 40.9036 141.81 40.6172 144.102C40.487 145.273 40.3828 146.432 40.3047 147.578C40.2266 148.698 40.2005 149.844 40.2266 151.016C40.2526 152.135 40.2786 153.242 40.3047 154.336C40.3568 155.43 40.3568 156.536 40.3047 157.656C40.2786 158.047 40.1484 158.372 39.9141 158.633C39.7057 158.867 39.4453 159.023 39.1328 159.102C38.8203 159.18 38.5078 159.167 38.1953 159.062C37.8828 158.958 37.6224 158.75 37.4141 158.438C36.8151 157.526 36.3073 156.576 35.8906 155.586C35.474 154.57 35.0833 153.568 34.7188 152.578C34.3542 151.615 33.9766 150.69 33.5859 149.805C33.1953 148.893 32.7526 147.995 32.2578 147.109C31.6068 145.938 30.9036 144.818 30.1484 143.75C29.4193 142.682 28.638 141.641 27.8047 140.625C27.8047 141.693 27.8047 142.747 27.8047 143.789C27.8047 144.805 27.8307 145.846 27.8828 146.914C27.9349 148.789 28.0651 150.651 28.2734 152.5C28.4818 154.323 28.7031 156.159 28.9375 158.008C28.9896 158.451 28.8333 158.828 28.4688 159.141C28.1302 159.427 27.7786 159.57 27.4141 159.57C26.9453 159.57 26.5807 159.427 26.3203 159.141C26.0599 158.828 25.9036 158.451 25.8516 158.008C25.5911 156.159 25.3568 154.323 25.1484 152.5C24.9401 150.651 24.8099 148.789 24.7578 146.914C24.7057 145.273 24.6797 143.646 24.6797 142.031C24.7057 140.391 24.7188 138.75 24.7188 137.109ZM48.8203 158.086C48.2214 157.643 47.6745 157.148 47.1797 156.602C46.7109 156.029 46.2812 155.43 45.8906 154.805C45.526 154.258 45.1745 153.672 44.8359 153.047C44.4974 152.422 44.1979 151.784 43.9375 151.133C43.6771 150.482 43.4688 149.818 43.3125 149.141C43.1823 148.464 43.1432 147.786 43.1953 147.109C43.2734 145.781 43.4036 144.479 43.5859 143.203C43.7943 141.901 44.0677 140.625 44.4062 139.375C44.5104 138.906 44.6406 138.385 44.7969 137.812C44.9531 137.24 45.1484 136.693 45.3828 136.172C45.6432 135.625 45.9427 135.13 46.2812 134.688C46.6198 134.245 47.0495 133.906 47.5703 133.672C48.3516 133.333 49.1328 133.216 49.9141 133.32C50.6953 133.398 51.4505 133.607 52.1797 133.945C52.9349 134.284 53.651 134.701 54.3281 135.195C55.0052 135.664 55.6432 136.133 56.2422 136.602C56.7891 137.044 57.3229 137.513 57.8438 138.008C58.3906 138.477 58.9505 138.932 59.5234 139.375C60.2005 139.974 60.8776 140.573 61.5547 141.172C62.2578 141.771 62.8307 142.461 63.2734 143.242C63.7943 144.128 64.0938 145.026 64.1719 145.938C64.25 146.823 64.1849 147.708 63.9766 148.594C63.7682 149.453 63.4427 150.299 63 151.133C62.5573 151.966 62.0755 152.773 61.5547 153.555C61.0859 154.232 60.5391 154.948 59.9141 155.703C59.3151 156.458 58.638 157.148 57.8828 157.773C57.1536 158.398 56.3594 158.893 55.5 159.258C54.6667 159.622 53.7812 159.753 52.8438 159.648C52.2969 159.57 51.8932 159.362 51.6328 159.023C51.138 158.945 50.6562 158.841 50.1875 158.711C49.7188 158.581 49.263 158.372 48.8203 158.086ZM46.3203 146.836C46.2682 147.487 46.2943 148.086 46.3984 148.633C46.5286 149.18 46.737 149.792 47.0234 150.469C47.388 151.224 47.7917 151.992 48.2344 152.773C48.6771 153.529 49.1979 154.219 49.7969 154.844C50.3177 155.417 50.9167 155.768 51.5938 155.898C52.0365 155.977 52.4661 156.055 52.8828 156.133C53.2995 156.185 53.7161 156.276 54.1328 156.406C54.2891 156.354 54.4453 156.302 54.6016 156.25C54.7578 156.172 54.9141 156.068 55.0703 155.938C55.513 155.651 55.9167 155.339 56.2812 155C56.6458 154.661 56.9974 154.31 57.3359 153.945C57.987 153.216 58.612 152.422 59.2109 151.562C59.8359 150.703 60.3307 149.818 60.6953 148.906C61.0599 147.995 61.2031 147.135 61.125 146.328C61.0469 145.521 60.6693 144.74 59.9922 143.984C59.3672 143.281 58.6771 142.643 57.9219 142.07C57.1927 141.471 56.4766 140.872 55.7734 140.273C55.1745 139.753 54.5885 139.258 54.0156 138.789C53.4427 138.32 52.8177 137.878 52.1406 137.461C51.5156 137.044 50.9036 136.732 50.3047 136.523C50.2266 136.497 50.1484 136.484 50.0703 136.484C50.0182 136.458 49.9531 136.432 49.875 136.406L49.2891 136.367C49.0807 136.419 48.9505 136.471 48.8984 136.523C48.7161 136.732 48.612 136.836 48.5859 136.836C48.4036 137.148 48.2865 137.37 48.2344 137.5C48.1823 137.63 48.1042 137.839 48 138.125C47.7396 138.88 47.5182 139.648 47.3359 140.43C47.1536 141.185 46.9974 141.94 46.8672 142.695C46.737 143.451 46.6198 144.141 46.5156 144.766C46.4375 145.391 46.3724 146.081 46.3203 146.836ZM62.1406 135.859C61.724 135.911 61.3594 135.768 61.0469 135.43C60.7344 135.091 60.5781 134.714 60.5781 134.297C60.5781 133.854 60.7344 133.503 61.0469 133.242C61.3594 132.956 61.724 132.786 62.1406 132.734C63.4427 132.63 64.7318 132.578 66.0078 132.578C67.2839 132.578 68.5729 132.617 69.875 132.695C70.2396 132.565 70.6302 132.591 71.0469 132.773C73.4688 132.956 75.9167 133.268 78.3906 133.711C78.8073 133.789 79.1198 134.036 79.3281 134.453C79.5365 134.87 79.5755 135.26 79.4453 135.625C79.3151 136.068 79.0677 136.38 78.7031 136.562C78.3646 136.719 77.974 136.771 77.5312 136.719C76.5417 136.536 75.5651 136.38 74.6016 136.25C73.638 136.12 72.6615 136.016 71.6719 135.938C71.3073 137.76 71.0859 139.583 71.0078 141.406C70.9557 143.229 71.0208 145.078 71.2031 146.953C71.3854 148.88 71.6458 150.794 71.9844 152.695C72.3229 154.57 72.6745 156.458 73.0391 158.359C73.1172 158.802 73.0651 159.206 72.8828 159.57C72.7266 159.909 72.4271 160.143 71.9844 160.273C71.5938 160.404 71.1901 160.365 70.7734 160.156C70.3828 159.948 70.1484 159.635 70.0703 159.219C69.6536 157.109 69.25 155.026 68.8594 152.969C68.4948 150.885 68.2214 148.789 68.0391 146.68C67.8828 144.831 67.8438 142.995 67.9219 141.172C68 139.349 68.2083 137.539 68.5469 135.742C66.4115 135.664 64.276 135.703 62.1406 135.859ZM92.4531 161.25C92.0625 161.25 91.6849 161.094 91.3203 160.781C90.9818 160.469 90.8385 160.104 90.8906 159.688C91.3073 155.521 91.5156 151.354 91.5156 147.188C91.5156 143.021 91.5026 138.841 91.4766 134.648C91.2682 134.336 91.151 133.984 91.125 133.594C91.125 133.177 91.2682 132.826 91.5547 132.539C91.7109 132.07 92.0234 131.771 92.4922 131.641C92.9609 131.51 93.4036 131.549 93.8203 131.758C95.0443 131.497 96.2812 131.354 97.5312 131.328C98.7812 131.276 100.031 131.276 101.281 131.328C102.531 131.354 103.781 131.393 105.031 131.445C106.307 131.471 107.57 131.445 108.82 131.367C109.315 131.341 109.68 131.484 109.914 131.797C110.174 132.083 110.305 132.422 110.305 132.812C110.305 133.203 110.174 133.581 109.914 133.945C109.68 134.284 109.315 134.466 108.82 134.492C107.648 134.57 106.464 134.583 105.266 134.531C104.068 134.479 102.87 134.44 101.672 134.414C100.474 134.362 99.2891 134.349 98.1172 134.375C96.9453 134.401 95.7734 134.531 94.6016 134.766C94.6016 136.562 94.6016 138.346 94.6016 140.117C94.6276 141.888 94.6406 143.672 94.6406 145.469C95.4479 145.469 96.2682 145.456 97.1016 145.43C97.9349 145.404 98.7552 145.391 99.5625 145.391C100.396 145.391 101.216 145.43 102.023 145.508C102.857 145.56 103.677 145.677 104.484 145.859C104.979 145.99 105.305 146.237 105.461 146.602C105.617 146.966 105.643 147.344 105.539 147.734C105.435 148.099 105.214 148.411 104.875 148.672C104.562 148.932 104.159 148.997 103.664 148.867C102.18 148.529 100.669 148.398 99.1328 148.477C97.6224 148.555 96.112 148.594 94.6016 148.594C94.5495 150.443 94.4844 152.292 94.4062 154.141C94.3281 155.964 94.1979 157.812 94.0156 159.688C93.9635 160.104 93.7943 160.469 93.5078 160.781C93.2474 161.094 92.8958 161.25 92.4531 161.25ZM113.391 158.086C112.792 157.643 112.245 157.148 111.75 156.602C111.281 156.029 110.852 155.43 110.461 154.805C110.096 154.258 109.745 153.672 109.406 153.047C109.068 152.422 108.768 151.784 108.508 151.133C108.247 150.482 108.039 149.818 107.883 149.141C107.753 148.464 107.714 147.786 107.766 147.109C107.844 145.781 107.974 144.479 108.156 143.203C108.365 141.901 108.638 140.625 108.977 139.375C109.081 138.906 109.211 138.385 109.367 137.812C109.523 137.24 109.719 136.693 109.953 136.172C110.214 135.625 110.513 135.13 110.852 134.688C111.19 134.245 111.62 133.906 112.141 133.672C112.922 133.333 113.703 133.216 114.484 133.32C115.266 133.398 116.021 133.607 116.75 133.945C117.505 134.284 118.221 134.701 118.898 135.195C119.576 135.664 120.214 136.133 120.812 136.602C121.359 137.044 121.893 137.513 122.414 138.008C122.961 138.477 123.521 138.932 124.094 139.375C124.771 139.974 125.448 140.573 126.125 141.172C126.828 141.771 127.401 142.461 127.844 143.242C128.365 144.128 128.664 145.026 128.742 145.938C128.82 146.823 128.755 147.708 128.547 148.594C128.339 149.453 128.013 150.299 127.57 151.133C127.128 151.966 126.646 152.773 126.125 153.555C125.656 154.232 125.109 154.948 124.484 155.703C123.885 156.458 123.208 157.148 122.453 157.773C121.724 158.398 120.93 158.893 120.07 159.258C119.237 159.622 118.352 159.753 117.414 159.648C116.867 159.57 116.464 159.362 116.203 159.023C115.708 158.945 115.227 158.841 114.758 158.711C114.289 158.581 113.833 158.372 113.391 158.086ZM110.891 146.836C110.839 147.487 110.865 148.086 110.969 148.633C111.099 149.18 111.307 149.792 111.594 150.469C111.958 151.224 112.362 151.992 112.805 152.773C113.247 153.529 113.768 154.219 114.367 154.844C114.888 155.417 115.487 155.768 116.164 155.898C116.607 155.977 117.036 156.055 117.453 156.133C117.87 156.185 118.286 156.276 118.703 156.406C118.859 156.354 119.016 156.302 119.172 156.25C119.328 156.172 119.484 156.068 119.641 155.938C120.083 155.651 120.487 155.339 120.852 155C121.216 154.661 121.568 154.31 121.906 153.945C122.557 153.216 123.182 152.422 123.781 151.562C124.406 150.703 124.901 149.818 125.266 148.906C125.63 147.995 125.773 147.135 125.695 146.328C125.617 145.521 125.24 144.74 124.562 143.984C123.938 143.281 123.247 142.643 122.492 142.07C121.763 141.471 121.047 140.872 120.344 140.273C119.745 139.753 119.159 139.258 118.586 138.789C118.013 138.32 117.388 137.878 116.711 137.461C116.086 137.044 115.474 136.732 114.875 136.523C114.797 136.497 114.719 136.484 114.641 136.484C114.589 136.458 114.523 136.432 114.445 136.406L113.859 136.367C113.651 136.419 113.521 136.471 113.469 136.523C113.286 136.732 113.182 136.836 113.156 136.836C112.974 137.148 112.857 137.37 112.805 137.5C112.753 137.63 112.674 137.839 112.57 138.125C112.31 138.88 112.089 139.648 111.906 140.43C111.724 141.185 111.568 141.94 111.438 142.695C111.307 143.451 111.19 144.141 111.086 144.766C111.008 145.391 110.943 146.081 110.891 146.836ZM130.93 149.375C130.643 146.771 130.448 144.193 130.344 141.641C130.24 139.062 130.044 136.484 129.758 133.906C129.706 133.464 129.849 133.099 130.188 132.812C130.552 132.5 130.93 132.344 131.32 132.344C131.789 132.344 132.154 132.5 132.414 132.812C132.674 133.099 132.831 133.464 132.883 133.906C133.065 135.469 133.195 137.018 133.273 138.555C133.378 140.065 133.469 141.602 133.547 143.164C133.651 145.43 133.846 147.721 134.133 150.039C134.159 150.326 134.185 150.651 134.211 151.016C134.263 151.38 134.302 151.654 134.328 151.836C134.38 152.201 134.432 152.552 134.484 152.891C134.562 153.229 134.641 153.568 134.719 153.906C134.875 154.557 135.044 155.156 135.227 155.703C135.435 156.224 135.734 156.667 136.125 157.031L136.477 157.227C136.685 157.279 136.867 157.305 137.023 157.305C137.206 157.279 137.466 157.214 137.805 157.109C138.169 156.979 138.482 156.823 138.742 156.641C139.445 156.172 140.044 155.586 140.539 154.883C141.034 154.18 141.464 153.451 141.828 152.695C142.245 151.862 142.609 151.003 142.922 150.117C143.234 149.232 143.495 148.333 143.703 147.422C144.224 145.13 144.445 142.826 144.367 140.508C144.315 138.19 144.146 135.885 143.859 133.594C143.807 133.177 143.951 132.812 144.289 132.5C144.654 132.188 145.018 132.031 145.383 132.031C145.852 132.031 146.216 132.188 146.477 132.5C146.737 132.812 146.893 133.177 146.945 133.594C147.284 136.094 147.466 138.633 147.492 141.211C147.518 143.763 147.206 146.263 146.555 148.711C146.32 149.596 146.047 150.508 145.734 151.445C145.422 152.383 145.044 153.294 144.602 154.18C144.185 155.039 143.69 155.872 143.117 156.68C142.544 157.461 141.893 158.138 141.164 158.711C140.435 159.284 139.628 159.74 138.742 160.078C137.857 160.417 136.958 160.495 136.047 160.312C135.344 160.182 134.706 159.883 134.133 159.414C133.586 158.919 133.143 158.372 132.805 157.773C132.128 156.471 131.685 155.104 131.477 153.672C131.268 152.214 131.086 150.781 130.93 149.375ZM150.422 137.109C150.37 137.057 150.318 137.005 150.266 136.953C150.24 136.901 150.201 136.849 150.148 136.797C149.836 136.484 149.68 136.159 149.68 135.82C149.706 135.456 149.81 135.143 149.992 134.883C150.201 134.596 150.461 134.388 150.773 134.258C151.112 134.102 151.451 134.089 151.789 134.219C152.206 134.167 152.596 134.271 152.961 134.531C153.352 134.766 153.547 135.156 153.547 135.703C154.875 137.292 156.125 138.854 157.297 140.391C158.469 141.927 159.536 143.555 160.5 145.273C160.943 146.055 161.346 146.862 161.711 147.695C162.102 148.503 162.466 149.323 162.805 150.156C162.805 149.089 162.844 148.034 162.922 146.992C163.026 145.951 163.143 144.883 163.273 143.789C163.56 141.549 163.833 139.323 164.094 137.109C164.38 134.87 164.536 132.604 164.562 130.312C164.562 129.818 164.719 129.453 165.031 129.219C165.37 128.958 165.734 128.828 166.125 128.828C166.516 128.828 166.867 128.958 167.18 129.219C167.518 129.453 167.688 129.818 167.688 130.312C167.661 132.656 167.492 134.974 167.18 137.266C166.893 139.531 166.607 141.81 166.32 144.102C166.19 145.273 166.086 146.432 166.008 147.578C165.93 148.698 165.904 149.844 165.93 151.016C165.956 152.135 165.982 153.242 166.008 154.336C166.06 155.43 166.06 156.536 166.008 157.656C165.982 158.047 165.852 158.372 165.617 158.633C165.409 158.867 165.148 159.023 164.836 159.102C164.523 159.18 164.211 159.167 163.898 159.062C163.586 158.958 163.326 158.75 163.117 158.438C162.518 157.526 162.01 156.576 161.594 155.586C161.177 154.57 160.786 153.568 160.422 152.578C160.057 151.615 159.68 150.69 159.289 149.805C158.898 148.893 158.456 147.995 157.961 147.109C157.31 145.938 156.607 144.818 155.852 143.75C155.122 142.682 154.341 141.641 153.508 140.625C153.508 141.693 153.508 142.747 153.508 143.789C153.508 144.805 153.534 145.846 153.586 146.914C153.638 148.789 153.768 150.651 153.977 152.5C154.185 154.323 154.406 156.159 154.641 158.008C154.693 158.451 154.536 158.828 154.172 159.141C153.833 159.427 153.482 159.57 153.117 159.57C152.648 159.57 152.284 159.427 152.023 159.141C151.763 158.828 151.607 158.451 151.555 158.008C151.294 156.159 151.06 154.323 150.852 152.5C150.643 150.651 150.513 148.789 150.461 146.914C150.409 145.273 150.383 143.646 150.383 142.031C150.409 140.391 150.422 138.75 150.422 137.109ZM189.094 150.352C188.964 151.94 188.495 153.359 187.688 154.609C186.88 155.833 185.812 156.875 184.484 157.734C183.599 158.281 182.648 158.776 181.633 159.219C180.617 159.661 179.602 160 178.586 160.234C177.674 160.443 176.776 160.534 175.891 160.508C175.031 160.482 174.159 160.417 173.273 160.312C173.065 160.547 172.805 160.703 172.492 160.781C172.206 160.885 171.919 160.898 171.633 160.82C171.034 160.664 170.669 160.286 170.539 159.688C170.227 159.375 170.07 158.997 170.07 158.555C170.07 157.982 170.331 157.526 170.852 157.188C171.008 156.146 171.125 155.104 171.203 154.062C171.307 153.021 171.385 151.966 171.438 150.898C171.516 149.648 171.581 148.411 171.633 147.188C171.685 145.964 171.698 144.727 171.672 143.477C171.672 142.695 171.646 141.888 171.594 141.055C171.542 140.221 171.516 139.401 171.516 138.594C171.516 137.76 171.555 136.94 171.633 136.133C171.737 135.326 171.932 134.544 172.219 133.789C172.089 133.372 172.115 132.943 172.297 132.5C172.479 132.057 172.831 131.784 173.352 131.68C173.664 131.341 174.029 131.185 174.445 131.211C174.888 131.237 175.253 131.38 175.539 131.641C176.815 131.745 178.052 131.992 179.25 132.383C180.474 132.747 181.594 133.346 182.609 134.18C183.859 135.169 184.862 136.367 185.617 137.773C186.372 139.154 186.984 140.586 187.453 142.07C187.661 142.721 187.87 143.385 188.078 144.062C188.312 144.74 188.508 145.43 188.664 146.133C188.846 146.836 188.977 147.539 189.055 148.242C189.133 148.945 189.146 149.648 189.094 150.352ZM182.57 155.234C182.909 155.026 183.208 154.818 183.469 154.609C183.755 154.401 184.042 154.154 184.328 153.867C184.562 153.607 184.745 153.398 184.875 153.242C185.005 153.086 185.161 152.852 185.344 152.539C185.786 151.628 185.995 150.599 185.969 149.453C185.969 148.802 185.917 148.203 185.812 147.656C185.708 147.083 185.552 146.445 185.344 145.742C185.135 145.013 184.914 144.297 184.68 143.594C184.471 142.865 184.224 142.161 183.938 141.484C183.729 140.911 183.443 140.299 183.078 139.648C182.74 138.971 182.388 138.411 182.023 137.969C181.112 136.875 180.083 136.094 178.938 135.625C177.792 135.13 176.542 134.844 175.188 134.766C174.901 135.495 174.719 136.263 174.641 137.07C174.589 137.852 174.576 138.646 174.602 139.453C174.628 140.26 174.667 141.068 174.719 141.875C174.797 142.682 174.823 143.464 174.797 144.219C174.693 146.432 174.589 148.62 174.484 150.781C174.406 152.943 174.224 155.117 173.938 157.305C174.406 157.357 174.875 157.396 175.344 157.422C175.839 157.448 176.32 157.435 176.789 157.383C177.779 157.279 178.768 157.031 179.758 156.641C180.773 156.224 181.711 155.755 182.57 155.234Z" fill="#8D99AE"/>
<path d="M60.625 84C62.125 84.4167 63.125 85.2083 63.625 86.375C64.125 87.5417 64.2083 88.75 63.875 90C63.5417 91.1667 62.8333 92.1667 61.75 93C60.75 93.75 59.4583 93.9167 57.875 93.5C57.4583 93.4167 57 93.3333 56.5 93.25C56.0833 93.1667 55.6667 93.0833 55.25 93C55.1667 94.9167 55.0833 96.8333 55 98.75C55 100.583 54.9167 102.458 54.75 104.375C54.5833 107.458 54.4583 110.542 54.375 113.625C54.375 116.708 54.625 119.75 55.125 122.75C55.375 124.167 55.2083 125.458 54.625 126.625C54.0417 127.708 53.0417 128.458 51.625 128.875C50.4583 129.292 49.2083 129.167 47.875 128.5C46.5417 127.833 45.75 126.792 45.5 125.375C44.9167 122.042 44.5833 118.708 44.5 115.375C44.5 112.042 44.5833 108.708 44.75 105.375C44.9167 103.042 45.0417 100.75 45.125 98.5C45.2083 96.1667 45.2917 93.8333 45.375 91.5C39.625 91 33.8333 90.8333 28 91C22.25 91.1667 16.5 91.1667 10.75 91C9.5 91 8.33333 90.5417 7.25 89.625C6.16667 88.625 5.66667 87.4167 5.75 86C6.25 79 6.58333 72.0417 6.75 65.125C6.91667 58.2083 7.25 51.2083 7.75 44.125C7.83333 42.7917 8.33333 41.625 9.25 40.625C10.1667 39.625 11.3333 39.125 12.75 39.125C14 39.125 15.1667 39.625 16.25 40.625C17.3333 41.625 17.8333 42.7917 17.75 44.125C17.25 50.375 16.9167 56.5833 16.75 62.75C16.6667 68.8333 16.4167 74.9583 16 81.125C21 81.125 25.9167 81.125 30.75 81.125C35.6667 81.0417 40.625 81.2083 45.625 81.625C45.5417 74.9583 45.125 68.375 44.375 61.875C43.7083 55.375 43.3333 48.7917 43.25 42.125C43.25 40.5417 43.75 39.375 44.75 38.625C45.8333 37.7917 47 37.375 48.25 37.375C49.5 37.375 50.625 37.7917 51.625 38.625C52.7083 39.375 53.25 40.5417 53.25 42.125C53.25 45.5417 53.375 48.9583 53.625 52.375C53.875 55.7083 54.125 59.0833 54.375 62.5C54.7083 65.9167 54.9583 69.3333 55.125 72.75C55.375 76.0833 55.5 79.4583 55.5 82.875C57.0833 83.125 58.7917 83.5 60.625 84ZM206.625 84C208.125 84.4167 209.125 85.2083 209.625 86.375C210.125 87.5417 210.208 88.75 209.875 90C209.542 91.1667 208.833 92.1667 207.75 93C206.75 93.75 205.458 93.9167 203.875 93.5C203.458 93.4167 203 93.3333 202.5 93.25C202.083 93.1667 201.667 93.0833 201.25 93C201.167 94.9167 201.083 96.8333 201 98.75C201 100.583 200.917 102.458 200.75 104.375C200.583 107.458 200.458 110.542 200.375 113.625C200.375 116.708 200.625 119.75 201.125 122.75C201.375 124.167 201.208 125.458 200.625 126.625C200.042 127.708 199.042 128.458 197.625 128.875C196.458 129.292 195.208 129.167 193.875 128.5C192.542 127.833 191.75 126.792 191.5 125.375C190.917 122.042 190.583 118.708 190.5 115.375C190.5 112.042 190.583 108.708 190.75 105.375C190.917 103.042 191.042 100.75 191.125 98.5C191.208 96.1667 191.292 93.8333 191.375 91.5C185.625 91 179.833 90.8333 174 91C168.25 91.1667 162.5 91.1667 156.75 91C155.5 91 154.333 90.5417 153.25 89.625C152.167 88.625 151.667 87.4167 151.75 86C152.25 79 152.583 72.0417 152.75 65.125C152.917 58.2083 153.25 51.2083 153.75 44.125C153.833 42.7917 154.333 41.625 155.25 40.625C156.167 39.625 157.333 39.125 158.75 39.125C160 39.125 161.167 39.625 162.25 40.625C163.333 41.625 163.833 42.7917 163.75 44.125C163.25 50.375 162.917 56.5833 162.75 62.75C162.667 68.8333 162.417 74.9583 162 81.125C167 81.125 171.917 81.125 176.75 81.125C181.667 81.0417 186.625 81.2083 191.625 81.625C191.542 74.9583 191.125 68.375 190.375 61.875C189.708 55.375 189.333 48.7917 189.25 42.125C189.25 40.5417 189.75 39.375 190.75 38.625C191.833 37.7917 193 37.375 194.25 37.375C195.5 37.375 196.625 37.7917 197.625 38.625C198.708 39.375 199.25 40.5417 199.25 42.125C199.25 45.5417 199.375 48.9583 199.625 52.375C199.875 55.7083 200.125 59.0833 200.375 62.5C200.708 65.9167 200.958 69.3333 201.125 72.75C201.375 76.0833 201.5 79.4583 201.5 82.875C203.083 83.125 204.792 83.5 206.625 84Z" fill="#8D99AE"/>
<path d="M122.857 74.5714H95.4286C92.2727 74.5714 89.7143 77.1298 89.7143 80.2857V98.5714C89.7143 101.727 92.2727 104.286 95.4286 104.286H122.857C126.013 104.286 128.571 101.727 128.571 98.5714V80.2857C128.571 77.1298 126.013 74.5714 122.857 74.5714Z" stroke="black" stroke-width="2"/>
<path fill-rule="evenodd" clip-rule="evenodd" d="M89.7143 62C89.4112 62 89.1205 62.1204 88.9062 62.3347C88.6918 62.5491 88.5714 62.8398 88.5714 63.1429V66C88.5714 67.5817 88.3086 68.6743 87.9509 69.5017C87.5897 70.336 87.1063 70.9646 86.5543 71.6206L86.3246 71.8914C85.84 72.4583 85.2846 73.1097 84.856 73.8857C84.3326 74.8343 84 75.9543 84 77.4286V98.5714C84 104.883 89.1166 110 95.4286 110H122.857C129.169 110 134.286 104.883 134.286 98.5714V77.4286C134.286 75.9543 133.953 74.8343 133.429 73.8857C133.001 73.1097 132.446 72.4594 131.961 71.8914L131.731 71.6206C131.179 70.9657 130.695 70.336 130.335 69.5017C129.977 68.6731 129.714 67.5817 129.714 66V63.1429C129.714 62.8398 129.594 62.5491 129.38 62.3347C129.165 62.1204 128.875 62 128.571 62H89.7143Z" fill="white"/>
<path fill-rule="evenodd" clip-rule="evenodd" d="M95.4286 73.4286H122.857C124.676 73.4286 126.42 74.151 127.706 75.437C128.992 76.7229 129.714 78.4671 129.714 80.2857V98.5714C129.714 100.39 128.992 102.134 127.706 103.42C126.42 104.706 124.676 105.429 122.857 105.429H95.4286C93.6099 105.429 91.8658 104.706 90.5798 103.42C89.2939 102.134 88.5714 100.39 88.5714 98.5714V80.2857C88.5714 78.4671 89.2939 76.7229 90.5798 75.437C91.8658 74.151 93.6099 73.4286 95.4286 73.4286V73.4286Z" fill="#61B2E4"/>
<path fill-rule="evenodd" clip-rule="evenodd" d="M95.4286 105.429H114.857C116.676 105.429 118.42 104.706 119.706 103.42C120.992 102.134 121.714 100.39 121.714 98.5714V80.2857C121.714 78.4671 120.992 76.7229 119.706 75.437C118.42 74.151 116.676 73.4286 114.857 73.4286H95.4286C93.6099 73.4286 91.8658 74.151 90.5798 75.437C89.2939 76.7229 88.5714 78.4671 88.5714 80.2857V98.5714C88.5714 100.39 89.2939 102.134 90.5798 103.42C91.8658 104.706 93.6099 105.429 95.4286 105.429Z" fill="#92D3F5"/>
<path d="M95.4286 98.5714V77.8C95.4286 72.7463 97.7143 73.3086 97.7143 66.5714" stroke="white" stroke-width="2" stroke-linecap="round" stroke-linejoin="round"/>
<path d="M129.714 54H88.5714C88.2683 54 87.9777 54.1204 87.7633 54.3347C87.549 54.5491 87.4286 54.8398 87.4286 55.1429V62C87.4286 62.3031 87.549 62.5938 87.7633 62.8081C87.9777 63.0225 88.2683 63.1429 88.5714 63.1429H129.714C130.017 63.1429 130.308 63.0225 130.522 62.8081C130.737 62.5938 130.857 62.3031 130.857 62V55.1429C130.857 54.8398 130.737 54.5491 130.522 54.3347C130.308 54.1204 130.017 54 129.714 54Z" fill="#D0CFCE"/>
<path d="M109.143 108.857H122.857C125.585 108.857 128.201 107.773 130.13 105.845C132.059 103.916 133.143 101.299 133.143 98.5714V77.4286C133.143 72.2857 128.571 72.8571 128.571 66M109.143 108.857H95.4286C92.7007 108.857 90.0844 107.773 88.1555 105.845C86.2266 103.916 85.1429 101.299 85.1429 98.5714V77.4286C85.1429 72.2857 89.7143 72.8571 89.7143 66M129.714 54H88.5715C88.2684 54 87.9777 54.1204 87.7633 54.3347C87.549 54.5491 87.4286 54.8398 87.4286 55.1429V62C87.4286 62.3031 87.549 62.5938 87.7633 62.8081C87.9777 63.0225 88.2684 63.1429 88.5715 63.1429H129.714C130.017 63.1429 130.308 63.0225 130.522 62.8081C130.737 62.5938 130.857 62.3031 130.857 62V55.1429C130.857 54.8398 130.737 54.5491 130.522 54.3347C130.308 54.1204 130.017 54 129.714 54Z" stroke="black" stroke-width="2" stroke-linecap="round" stroke-linejoin="round"/>
</svg>
