<svg width="28" height="28" viewBox="0 0 28 28" fill="none" xmlns="http://www.w3.org/2000/svg">
<rect x="0.25" y="0.25" width="27.5" height="27.5" rx="2.75" fill="#D2DBFD"/>
<rect x="0.25" y="0.25" width="27.5" height="27.5" rx="2.75" stroke="#C6C6C6" stroke-width="0.5"/>
<path fill-rule="evenodd" clip-rule="evenodd" d="M8.44612 6.691C7.72618 7.383 7.53604 8.553 7.15662 10.894L6.50842 14.894C5.97516 18.186 5.70896 19.832 6.48594 20.916C7.26379 22 8.71059 22 11.6059 22H16.394C19.2893 22 20.7361 22 21.514 20.916C22.2918 19.832 22.0239 18.186 21.4915 14.894L20.8433 10.894C20.463 8.554 20.2737 7.383 19.5538 6.691C18.8339 6 17.8045 6 15.7458 6H12.2541C10.1954 6 9.16607 6 8.44612 6.691ZM12.166 9.751C12.3 10.19 12.5484 10.5702 12.8769 10.8391C13.2055 11.1079 13.598 11.2523 14.0004 11.2523C14.4028 11.2523 14.7953 11.1079 15.1239 10.8391C15.4524 10.5702 15.7008 10.19 15.8348 9.751C15.8953 9.5685 16.0149 9.4205 16.1682 9.33853C16.3216 9.25656 16.4965 9.24708 16.6558 9.31213C16.8151 9.37717 16.9462 9.51159 17.0211 9.68676C17.096 9.86193 17.1089 10.064 17.0569 10.25C16.8335 10.9813 16.4195 11.6145 15.8721 12.0624C15.3247 12.5102 14.6708 12.7507 14.0004 12.7507C13.33 12.7507 12.6761 12.5102 12.1287 12.0624C11.5813 11.6145 11.1673 10.9813 10.9439 10.25C10.9139 10.1567 10.9002 10.0575 10.9037 9.95803C10.9072 9.85859 10.9278 9.76094 10.9642 9.67078C11.0006 9.58062 11.0522 9.49975 11.1159 9.43289C11.1796 9.36602 11.2542 9.3145 11.3353 9.28132C11.4164 9.24814 11.5024 9.23397 11.5883 9.23963C11.6741 9.24529 11.7582 9.27067 11.8355 9.31429C11.9128 9.35792 11.9818 9.41891 12.0386 9.49371C12.0953 9.56851 12.1386 9.65664 12.166 9.751Z" fill="#4268F1"/>
</svg>
