<svg width="28" height="28" viewBox="0 0 28 28" fill="none" xmlns="http://www.w3.org/2000/svg">
<rect x="0.25" y="0.25" width="27.5" height="27.5" rx="2.75" fill="#FDD3FD"/>
<rect x="0.25" y="0.25" width="27.5" height="27.5" rx="2.75" stroke="#C6C6C6" stroke-width="0.5"/>
<path d="M8 22C7.16667 22 6.45833 21.7083 5.875 21.125C5.29167 20.5417 5 19.8333 5 19H3V8C3 7.45 3.196 6.97933 3.588 6.588C3.98 6.19667 4.45067 6.00067 5 6H19V10H22L25 14V19H23C23 19.8333 22.7083 20.5417 22.125 21.125C21.5417 21.7083 20.8333 22 20 22C19.1667 22 18.4583 21.7083 17.875 21.125C17.2917 20.5417 17 19.8333 17 19H11C11 19.8333 10.7083 20.5417 10.125 21.125C9.54167 21.7083 8.83333 22 8 22ZM8 20C8.28333 20 8.521 19.904 8.713 19.712C8.905 19.52 9.00067 19.2827 9 19C8.99933 18.7173 8.90333 18.48 8.712 18.288C8.52067 18.096 8.28333 18 8 18C7.71667 18 7.47933 18.096 7.288 18.288C7.09667 18.48 7.00067 18.7173 7 19C6.99933 19.2827 7.09533 19.5203 7.288 19.713C7.48067 19.9057 7.718 20.0013 8 20ZM20 20C20.2833 20 20.521 19.904 20.713 19.712C20.905 19.52 21.0007 19.2827 21 19C20.9993 18.7173 20.9033 18.48 20.712 18.288C20.5207 18.096 20.2833 18 20 18C19.7167 18 19.4793 18.096 19.288 18.288C19.0967 18.48 19.0007 18.7173 19 19C18.9993 19.2827 19.0953 19.5203 19.288 19.713C19.4807 19.9057 19.718 20.0013 20 20ZM19 15H23.25L21 12H19V15Z" fill="#EC46F0"/>
</svg>
