<svg width="28" height="28" viewBox="0 0 28 28" fill="none" xmlns="http://www.w3.org/2000/svg">
<rect x="0.25" y="0.25" width="27.5" height="27.5" rx="2.75" fill="#D2DBFD"/>
<rect x="0.25" y="0.25" width="27.5" height="27.5" rx="2.75" stroke="#C6C6C6" stroke-width="0.5"/>
<path d="M8.508 15.5981C7.84867 15.5981 7.313 16.1371 7.313 16.7994C7.31247 17.117 7.43803 17.4218 7.6621 17.6468C7.88617 17.8719 8.19041 17.9988 8.508 17.9997C8.82588 17.999 9.1305 17.8722 9.3549 17.6471C9.5793 17.4219 9.70511 17.1169 9.70467 16.799C9.70493 16.4812 9.57908 16.1762 9.35473 15.9511C9.13038 15.7259 8.82586 15.599 8.508 15.5981ZM8.508 17.4184C8.34916 17.4177 8.19708 17.354 8.08511 17.2413C7.97313 17.1287 7.9104 16.9762 7.91067 16.8174C7.91058 16.6587 7.97339 16.5064 8.08534 16.3939C8.1973 16.2813 8.34928 16.2178 8.508 16.2171C8.66702 16.2173 8.81942 16.2807 8.93174 16.3933C9.04405 16.5058 9.10709 16.6584 9.107 16.8174C9.10713 16.8962 9.09174 16.9742 9.06171 17.0471C9.03168 17.1199 8.98759 17.1861 8.93197 17.2419C8.87635 17.2977 8.81028 17.342 8.73753 17.3723C8.66479 17.4026 8.58679 17.4182 8.508 17.4184ZM19.0223 15.5981C18.362 15.5981 17.8267 16.1371 17.8267 16.7994C17.826 17.1171 17.9517 17.4221 18.1759 17.6473C18.4001 17.8724 18.7046 17.9993 19.0223 18C19.6823 18 20.219 17.4624 20.219 16.7994C20.2194 16.4815 20.0935 16.1764 19.8692 15.9512C19.6448 15.726 19.3402 15.599 19.0223 15.5981ZM19.0223 17.4184C18.8634 17.4178 18.7111 17.3542 18.599 17.2416C18.4869 17.1289 18.4241 16.9763 18.4243 16.8174C18.4242 16.6585 18.4871 16.5062 18.5992 16.3936C18.7113 16.2811 18.8635 16.2176 19.0223 16.2171C19.353 16.2171 19.6213 16.4867 19.6213 16.8174C19.6215 16.8962 19.6061 16.9742 19.576 17.0471C19.546 17.1199 19.5019 17.1861 19.4463 17.2419C19.3907 17.2977 19.3246 17.342 19.2519 17.3723C19.1791 17.4026 19.1011 17.4182 19.0223 17.4184ZM21.669 10H11.1537C11.0657 10.0003 10.9815 10.0354 10.9194 10.0977C10.8574 10.16 10.8226 10.2444 10.8227 10.3323V13.3462H10.1603V11.4959C10.1604 11.4524 10.1519 11.4092 10.1353 11.3689C10.1187 11.3286 10.0943 11.292 10.0635 11.2611C10.0328 11.2302 9.99622 11.2058 9.95598 11.189C9.91573 11.1723 9.87258 11.1637 9.829 11.1636H7.573C7.17967 11.1636 6.82833 11.4543 6.76533 11.8703V11.8486L6.41333 13.8442L6.414 13.8512C6.29801 13.8711 6.19281 13.9314 6.11703 14.0215C6.04126 14.1115 5.9998 14.2255 6 14.3432L6.011 14.4498L6 14.4468L6.49667 16.6917H7.014V16.6714C7.014 15.8668 7.67233 15.2151 8.484 15.2151C9.295 15.2151 9.95367 15.8668 9.95367 16.6714V16.6917H17.529V16.6714C17.529 15.8668 18.1877 15.2151 18.998 15.2151C19.8097 15.2151 20.4683 15.8668 20.4683 16.6714L20.467 16.6917H22V10.3323C22.0001 10.2888 21.9916 10.2456 21.975 10.2054C21.9584 10.1651 21.9341 10.1285 21.9033 10.0976C21.8726 10.0668 21.8361 10.0422 21.7959 10.0255C21.7557 10.0088 21.7126 10.0001 21.669 10ZM9.001 11.7036V13.3462H7.01433L7.26267 11.9526C7.28333 11.7859 7.42833 11.6629 7.573 11.6629H9.001V11.7036Z" fill="#4268F1"/>
</svg>
