<svg width="28" height="28" viewBox="0 0 28 28" fill="none" xmlns="http://www.w3.org/2000/svg">
<rect x="0.25" y="0.25" width="27.5" height="27.5" rx="2.75" fill="#E3C6FF"/>
<rect x="0.25" y="0.25" width="27.5" height="27.5" rx="2.75" stroke="#C6C6C6" stroke-width="0.5"/>
<path fill-rule="evenodd" clip-rule="evenodd" d="M18.4444 6C17.5015 6 16.5971 6.3746 15.9303 7.0414C15.2635 7.70819 14.8889 8.61256 14.8889 9.55556C14.8889 10.4985 15.2635 11.4029 15.9303 12.0697C16.5971 12.7365 17.5015 13.1111 18.4444 13.1111C19.3874 13.1111 20.2918 12.7365 20.9586 12.0697C21.6254 11.4029 22 10.4985 22 9.55556C22 8.61256 21.6254 7.70819 20.9586 7.0414C20.2918 6.3746 19.3874 6 18.4444 6ZM6 18.4444C6 17.5015 6.3746 16.5971 7.0414 15.9303C7.70819 15.2635 8.61256 14.8889 9.55556 14.8889C10.4985 14.8889 11.4029 15.2635 12.0697 15.9303C12.7365 16.5971 13.1111 17.5015 13.1111 18.4444C13.1111 19.3874 12.7365 20.2918 12.0697 20.9586C11.4029 21.6254 10.4985 22 9.55556 22C8.61256 22 7.70819 21.6254 7.0414 20.9586C6.3746 20.2918 6 19.3874 6 18.4444ZM14.8889 15.7778C14.8889 15.542 14.9825 15.3159 15.1492 15.1492C15.3159 14.9825 15.542 14.8889 15.7778 14.8889H21.1111C21.3469 14.8889 21.573 14.9825 21.7397 15.1492C21.9064 15.3159 22 15.542 22 15.7778V20.2222C22 20.6937 21.8127 21.1459 21.4793 21.4793C21.1459 21.8127 20.6937 22 20.2222 22H16.6667C16.1952 22 15.743 21.8127 15.4096 21.4793C15.0762 21.1459 14.8889 20.6937 14.8889 20.2222V15.7778ZM6 6.88889C6 6.65314 6.09365 6.42705 6.26035 6.26035C6.42705 6.09365 6.65314 6 6.88889 6H12.2222C12.458 6 12.6841 6.09365 12.8508 6.26035C13.0175 6.42705 13.1111 6.65314 13.1111 6.88889V11.3333C13.1111 11.8048 12.9238 12.257 12.5904 12.5904C12.257 12.9238 11.8048 13.1111 11.3333 13.1111H7.77778C7.30628 13.1111 6.8541 12.9238 6.5207 12.5904C6.1873 12.257 6 11.8048 6 11.3333V6.88889Z" fill="#8000FF"/>
</svg>
