<svg width="13" height="10" viewBox="0 0 13 10" fill="none" xmlns="http://www.w3.org/2000/svg">
<path d="M0.873915 9.808C0.766184 9.808 0.670883 9.78608 0.588013 9.74224C0.505143 9.6984 0.440689 9.64054 0.39465 9.56866C0.344928 9.49797 0.317304 9.42154 0.31178 9.3394C0.307176 9.25685 0.334339 9.17372 0.393269 9.08999L5.82817 1.04734C5.8871 0.963607 5.958 0.902785 6.04087 0.864871C6.12374 0.826956 6.21397 0.807999 6.31157 0.807999C6.40918 0.807999 6.49918 0.826956 6.58159 0.864871C6.664 0.902785 6.7349 0.963607 6.79429 1.04734L12.2299 9.08999C12.2888 9.17372 12.3157 9.25666 12.3107 9.3388C12.3061 9.42174 12.2785 9.49836 12.2278 9.56866C12.1818 9.64054 12.1173 9.6984 12.0344 9.74224C11.9516 9.78608 11.8565 9.808 11.7492 9.808H0.873915ZM6.31157 8.39568C6.4322 8.39568 6.53325 8.36072 6.61474 8.29082C6.69623 8.22091 6.73674 8.13422 6.73628 8.03075C6.73582 7.92727 6.69508 7.84078 6.61405 7.77127C6.53302 7.70176 6.4322 7.66661 6.31157 7.66582C6.19095 7.66503 6.09013 7.69998 6.0091 7.77068C5.92807 7.84137 5.88733 7.92806 5.88687 8.03075C5.88641 8.13343 5.92715 8.22012 6.0091 8.29082C6.09105 8.36151 6.19187 8.39647 6.31157 8.39568ZM6.31157 7.07399C6.4101 7.07399 6.49228 7.04556 6.55811 6.98869C6.62395 6.93181 6.65687 6.86151 6.65687 6.77779V4.40812C6.65687 4.32399 6.62372 4.2535 6.55742 4.19662C6.49113 4.13975 6.40895 4.11151 6.31088 4.11191C6.21282 4.1123 6.13087 4.14054 6.06504 4.19662C5.9992 4.25271 5.96628 4.3232 5.96628 4.40812V6.77779C5.96628 6.86151 5.99943 6.93181 6.06573 6.98869C6.13202 7.04556 6.2142 7.07399 6.31227 7.07399" fill="white"/>
</svg>
